<svg xmlns="http://www.w3.org/2000/svg" viewBox="0 0 208.48 208.48"><defs><style>.cls-1{fill:#fff;}.cls-2{fill:#335463;}.cls-3{fill:#28abe2;}.cls-4{fill:#28aae2;}.cls-5{fill:none;stroke:#28abe2;stroke-miterlimit:10;}</style></defs><title>ALBF_Logo_sansBorder_Extra_Ink</title><g id="Layer_2" data-name="Layer 2"><g id="Layer_1-2" data-name="Layer 1"><circle class="cls-1" cx="104.24" cy="104.24" r="104.24"/><path class="cls-2" d="M18.36,94.86H38.89v5.06H24.34v6.62H37.09v5H24.34v12.07h-6Z"/><path class="cls-2" d="M46.8,94.82h6.11V112.5a9.94,9.94,0,0,0,.7,4.33c.73,1.62,2.31,2.42,4.75,2.42s4-.8,4.73-2.42a10.1,10.1,0,0,0,.7-4.33V94.82H69.9v17.69a14.83,14.83,0,0,1-1.42,7.15q-2.66,4.7-10.12,4.69t-10.14-4.69a14.83,14.83,0,0,1-1.42-7.15Z"/><path class="cls-2" d="M79.68,94.82h6v23.61h14.37v5.18H79.68Z"/><path class="cls-2" d="M108.12,94.82h6v23.61h14.38v5.18H108.12Z"/><path class="cls-2" d="M157.84,99.92H142.6V106h14v5h-14v7.4h15.94v5.18H136.73V94.82h21.11Z"/><path class="cls-2" d="M185.68,95.56a7.14,7.14,0,0,1,2.69,2,8.8,8.8,0,0,1,1.45,2.43,7.94,7.94,0,0,1,.53,3,8.66,8.66,0,0,1-1,4,5.8,5.8,0,0,1-3.42,2.8,5.34,5.34,0,0,1,2.82,2.27,9.44,9.44,0,0,1,.83,4.51v1.93a15.19,15.19,0,0,0,.16,2.68,2.43,2.43,0,0,0,1.11,1.64v.72h-6.64c-.18-.64-.31-1.15-.39-1.54a14.58,14.58,0,0,1-.25-2.48l0-2.68c0-1.84-.34-3.06-.95-3.67s-1.76-.92-3.43-.92h-5.88v11.29h-5.87V94.82h13.77A12.71,12.71,0,0,1,185.68,95.56Zm-12.44,4.26v7.73h6.48a6.94,6.94,0,0,0,2.89-.46,3.25,3.25,0,0,0,1.71-3.25q0-2.61-1.65-3.51a6,6,0,0,0-2.78-.51Z"/><path class="cls-3" d="M109.28,82.08c-.74,0-1.76,0-2.23,0a3.33,3.33,0,0,1-3-2.35,2.65,2.65,0,0,1-.08-1,10.33,10.33,0,0,1-3.48,2.49,10.5,10.5,0,0,1-4.24.86,10,10,0,0,1-2.63-.35,6.4,6.4,0,0,1-2.22-1.09,5.53,5.53,0,0,1-1.52-1.81,5.45,5.45,0,0,1-.56-2.55q0-5.15,7.25-6.07l3.32-.43q.68-.08,1.62-.24A6.14,6.14,0,0,0,103,69.1a1.26,1.26,0,0,0,.74-.92,5.19,5.19,0,0,0,.14-1.19,3.93,3.93,0,0,0-1.18-2.94,5.63,5.63,0,0,0-4-1.14,11.49,11.49,0,0,0-2.28.21,5,5,0,0,0-1.82.74,4.24,4.24,0,0,0-1.29,1.4,6,6,0,0,0-.66,2.2H90.23a7.13,7.13,0,0,1,.84-3.06,6.26,6.26,0,0,1,1.86-2.06,8,8,0,0,1,2.65-1.17,13.58,13.58,0,0,1,3.18-.37,12.61,12.61,0,0,1,2.94.33,7.1,7.1,0,0,1,2.4,1.06,4.86,4.86,0,0,1,1.6,1.92,6.76,6.76,0,0,1,.59,3c0,3.09.13,6.19,0,9.28-.05,1-.13,2.7.81,3.24a1.19,1.19,0,0,0,.48.15m-3.7-8.81a12.19,12.19,0,0,1-3.08.81c-1,.13-2.08.24-3.12.31a9.08,9.08,0,0,0-4.31,1.21,3.45,3.45,0,0,0-1.54,3.08A3.28,3.28,0,0,0,92.21,78a3.52,3.52,0,0,0,1,1.13,4.28,4.28,0,0,0,1.45.66,6.2,6.2,0,0,0,1.66.22,11.37,11.37,0,0,0,2.8-.35,7.82,7.82,0,0,0,2.42-1.07,5.41,5.41,0,0,0,1.7-1.83,5.15,5.15,0,0,0,.64-2.63Z"/><path class="cls-3" d="M111.79,74.35a5.16,5.16,0,0,1,3.29-1,5.69,5.69,0,0,1,3.46,1,3.61,3.61,0,0,1,.93,4.56,3.54,3.54,0,0,1-.92.87h1.13v2.31h-10.4l-1.7-2.34h4.3a3.54,3.54,0,0,1-.95-1,3,3,0,0,1-.41-1.62A3.34,3.34,0,0,1,111.79,74.35Zm5.46,2a3.3,3.3,0,0,0-1.92-.51,4.22,4.22,0,0,0-1.58.25,1.74,1.74,0,0,0-1.19,1.74,1.76,1.76,0,0,0,1.16,1.77,4.49,4.49,0,0,0,1.6.24,3.36,3.36,0,0,0,1.91-.51,1.76,1.76,0,0,0,.75-1.57A1.61,1.61,0,0,0,117.25,76.31Z"/><path class="cls-3" d="M109.65,68.47v2.37h-2.17V68.47Zm1.07,2.37V68.47h9v2.37Z"/><path class="cls-3" d="M112.47,66.28H110.8V65h-2.5V62.71h2.5V61.25h1.67v1.46h4.73a1.09,1.09,0,0,0,.69-.14,1.57,1.57,0,0,0,.13-.86v-.22c0-.08,0-.16,0-.24h1.75l0,1.11a2.93,2.93,0,0,1-.58,2.27A1.68,1.68,0,0,1,118,65h-5.51Z"/><path class="cls-4" d="M89.85,84.19h.74V89h2.73v.64H89.85Z"/><path class="cls-4" d="M95.46,84.19h.74v5.44h-.74Z"/><path class="cls-4" d="M102.58,84.19v.65h-1.84v4.79H100V84.84H98.16v-.65Z"/><path class="cls-4" d="M108.43,84.19v.65H106.6v4.79h-.74V84.84H104v-.65Z"/><path class="cls-4" d="M110.33,84.19h.74V89h2.73v.64h-3.47Z"/><path class="cls-4" d="M115.85,84.19h3.94v.67h-3.23v1.65h3v.63h-3V89h3.29v.64h-4Z"/><line class="cls-5" x1="127.8" y1="87.2" x2="190.11" y2="87.2"/><line class="cls-5" x1="17.65" y1="87.2" x2="79.97" y2="87.2"/><path class="cls-3" d="M115,192.1c-.58.14-.25.48-.32.57C115.59,192.29,114.92,192,115,192.1Z"/><path class="cls-3" d="M122,183.24l.2.2a4.65,4.65,0,0,0-1-1.69A4.59,4.59,0,0,1,122,183.24Z"/><path class="cls-3" d="M113.24,178.25a3.5,3.5,0,0,0,2.15.58,7.73,7.73,0,0,1,2.87.57l.27.27a5.58,5.58,0,0,1,1.17-.07,9.83,9.83,0,0,0-3.7-.93A20.13,20.13,0,0,1,113.24,178.25Z"/><path class="cls-3" d="M108.47,176.2c.29.31-1.09.16,1.15.19l-.2-.09C109.22,176.29,108.94,176.26,108.47,176.2Z"/><path class="cls-3" d="M109.42,176.3c1,.06-.63-.29,0,0Z"/><path class="cls-3" d="M104.92,176.17l1.29-.18c-.26-.18-1.39-.28-1-.37C103.94,175.69,104.2,175.87,104.92,176.17Z"/><path class="cls-3" d="M103.7,176.63l.66-.07C104.25,176.49,104.08,176.45,103.7,176.63Z"/><path class="cls-3" d="M105.76,176.41l-1.4.15c.18.12.19.36.64-.05C104.88,176.72,105.16,176.52,105.76,176.41Z"/><path class="cls-3" d="M106.55,176.56c.7.2,1.62.36.33.52C109.31,177.15,109,176.62,106.55,176.56Z"/><path class="cls-3" d="M112.68,178.92l.91.34.85-.12C114,179.19,112.65,178.68,112.68,178.92Z"/><path class="cls-3" d="M97.18,175.45c-.09.14.39.42.47.62l.92-.13C98.1,175.82,97.23,175.67,97.18,175.45Z"/><path class="cls-3" d="M97.65,176.07l-1.37.18C97.48,176.36,97.72,176.24,97.65,176.07Z"/><polygon class="cls-3" points="103.44 177.42 105.76 176.98 103 177.41 103.44 177.42"/><polygon class="cls-3" points="92.1 175 92.88 174.74 91.5 175.11 92.1 175"/><path class="cls-3" d="M89.41,174.61c.14-.27.13-.48.24-.63a.67.67,0,0,1-.48.28C89.35,174.28,89.33,174.32,89.41,174.61Z"/><path class="cls-3" d="M88.76,174.19a.54.54,0,0,0,.41.07A2.46,2.46,0,0,1,88.76,174.19Z"/><path class="cls-3" d="M94,176a1.65,1.65,0,0,0-1-.53l.48.48Z"/><path class="cls-3" d="M93.48,176h0l-1.13-.14Z"/><path class="cls-3" d="M94.12,176,94,176C94,176.05,94.06,176.07,94.12,176Z"/><path class="cls-3" d="M99.84,176.88c-.82.2-2.52.37-.91.81C99.53,177.43,98.6,177.18,99.84,176.88Z"/><path class="cls-3" d="M94.73,176.6l1.44.2c0-.11-.27-.29.13-.39Z"/><polygon class="cls-3" points="94.02 176.68 94.73 176.6 94.2 176.52 94.02 176.68"/><path class="cls-3" d="M88.8,175a.65.65,0,0,1-.65-.45,1,1,0,0,0,.56.82C88.84,175.23,89.05,175.09,88.8,175Z"/><path class="cls-3" d="M90.38,175.55h-.12C90.32,175.6,90.38,175.62,90.38,175.55Z"/><path class="cls-3" d="M90.6,171.1h-.13l0,.08Z"/><path class="cls-3" d="M88.71,175.42c.23.2.38.14.71.09l-.26,0-.15,0a.94.94,0,0,1-.3-.12C88.65,175.36,88.62,175.4,88.71,175.42Z"/><path class="cls-3" d="M88.62,173.67a.84.84,0,0,0-.32.28C88.45,173.83,88.71,173.72,88.62,173.67Z"/><path class="cls-3" d="M90.11,175.41h.08C90,175.28,90.05,175.33,90.11,175.41Z"/><path class="cls-3" d="M90.11,175.41a5.69,5.69,0,0,0-.69.1,3.41,3.41,0,0,0,.84,0A.51.51,0,0,1,90.11,175.41Z"/><path class="cls-3" d="M91.18,167.61c.07.4-1.19,1.47-2.59,2-.91,1.13.72,1.42,1.88,1.52-.07-.16-.16-.29.89-1.19-.25,0-1,.31-1.51.47s-.88.27-.54-.22c1.42-1.15,1.36-.68,2.23-.94-.94-.08,1.78-1.74,1.13-2.19-.49.3-.94.66-1.4,1C91.18,167.92,91.65,167.48,91.18,167.61Z"/><path class="cls-3" d="M88.81,172.45c-.08.13-.18.25-.24.37a3,3,0,0,1,1.43-.7c.45-.62.53-.81.49-1a7.86,7.86,0,0,0-1.74,1.44Z"/><path class="cls-3" d="M88,173.91a.88.88,0,0,1-.4-.54c-.09-.2-.2-.37-.54-.17-.2.57-.1.79,0,.91a2.79,2.79,0,0,1,.4.45,1.07,1.07,0,0,1,0-.59s.06,0,.12.1.25.28.41-.15a2.1,2.1,0,0,0,.17.58.86.86,0,0,1,.15-.55l0,0h0c-.06,0-.1.06-.06,0v0a.44.44,0,0,1-.16-.06c.15-.31.12,0,.16.06h.07a1.42,1.42,0,0,1,0-.5,2.5,2.5,0,0,1,.07-.26,2.64,2.64,0,0,1,.21-.39,1.88,1.88,0,0,0-.22.26.7.7,0,0,0-.14.21A1.42,1.42,0,0,0,88,173.91Z"/><path class="cls-3" d="M97.38,178.54c-.09,0-.08-.07-.08-.1C97.11,178.48,97,178.51,97.38,178.54Z"/><path class="cls-3" d="M96.23,178.21a2,2,0,0,1,1.06-.12c.57.16,0,.21,0,.35.41-.09,1.42-.24.17-.51l-.2,0a5.5,5.5,0,0,1-2.33-.9A3.45,3.45,0,0,0,96.23,178.21Z"/><path class="cls-3" d="M89.87,176.72c-.36,0-.7-.08-1-.15a3.71,3.71,0,0,1-.83-.24,3.63,3.63,0,0,0,.71.7v-.23C89.87,177.21,89.7,176.84,89.87,176.72Z"/><polygon class="cls-3" points="90.92 171.16 90.92 171.69 91.66 170.5 90.92 171.16"/><path class="cls-3" d="M93.35,169.75l.09.4c.17-.19.37-.35.56-.53Z"/><path class="cls-3" d="M44.35,151.82l-.75-.13A4.88,4.88,0,0,0,44.35,151.82Z"/><path class="cls-3" d="M49.57,153.05l.16-.17C49.47,153,49.36,153,49.57,153.05Z"/><path class="cls-3" d="M142.77,148.7c-1-.4-2.14-1-2-.55l.3.44A5.42,5.42,0,0,1,142.77,148.7Z"/><path class="cls-3" d="M91.07,150.84l.3.13.68-.42Z"/><path class="cls-3" d="M90.38,152.65,89,152.38A9.9,9.9,0,0,0,90.38,152.65Z"/><path class="cls-3" d="M47.7,130.59l.79-.6C47.11,130.26,47.76,130.36,47.7,130.59Z"/><path class="cls-3" d="M123.18,164.47a13.68,13.68,0,0,0,2.19.11C124.3,164.41,123.43,164.09,123.18,164.47Z"/><path class="cls-3" d="M47.49,147.92c-.41,0-.59,0-.61.12C47.3,148.08,47.55,148,47.49,147.92Z"/><path class="cls-3" d="M127.88,164.39l-.47-.06a14.59,14.59,0,0,1-2,.25A4.36,4.36,0,0,0,127.88,164.39Z"/><path class="cls-3" d="M147.73,130.38l.22.05C148,130.37,147.87,130.37,147.73,130.38Z"/><path class="cls-3" d="M176.69,134.85c-.29,0-.76,0-1.19,0A5.55,5.55,0,0,0,176.69,134.85Z"/><path class="cls-3" d="M104.47,166.59c-.61.14-.09.06,0,0Z"/><path class="cls-3" d="M101.13,165.5c.12-.08.21-.16.21-.26A.48.48,0,0,1,101.13,165.5Z"/><path class="cls-3" d="M134.15,161.23h0C134,161.16,134,161.17,134.15,161.23Z"/><path class="cls-3" d="M103.51,166.56a5.64,5.64,0,0,0,.81,0C104.19,166.53,103.94,166.54,103.51,166.56Z"/><path class="cls-3" d="M103.67,166.74l-.54.06C103.07,166.88,103.14,166.91,103.67,166.74Z"/><path class="cls-3" d="M105.33,166.43a9.42,9.42,0,0,1-1,.11c.13,0,.18,0,.15.05Z"/><path class="cls-3" d="M94.4,131.37l.14,0C95.2,131.23,94.91,131.26,94.4,131.37Z"/><path class="cls-3" d="M125.71,152.85l.08,0h-.1Z"/><path class="cls-3" d="M123.38,153.14a3.06,3.06,0,0,1,2.31-.32l-.75-1.26Z"/><path class="cls-3" d="M34.28,141.94a6.79,6.79,0,0,0-.21,2.61,7,7,0,0,1-.53-3.7c.07-.66,0-.69-.56.54.32.15.36.88.53,1.92a8.87,8.87,0,0,0,1.31,3.51,7.31,7.31,0,0,0,2.35,2.28c.72.41,1.26.51,1.49.26.32.3.64.58,1,.85-.31-.17-.39-.13-.7-.31,1.86,1.65,2-.05,4.59,1.16.92.43,1.55.81.84.76.76.1,1.5.22,2.26.27s.42.37-.21.2c1.12.23,2.24.42,3.36.55l0,0c.51-.14,1.62-.31,2.16-.41.81.29-.44.1-.25.29.63,0,1.25-.08,1.86-.15.72.4-.82.65-2.1.44a1.71,1.71,0,0,0,1.84.62,7.5,7.5,0,0,1,3.38.2c-.58,0-1.16.08-1.75.1,1.09.84,2.47.6,4.43,1.09-.47-.23-3.91-1.28-1.91-1.57a5,5,0,0,0,2.36-.1c0,.48,1,.37,2.33.31l-.07.65c1.39-.21,1.27-.54,2.08-.85a2.42,2.42,0,0,1,2.24.92c2.45,0-1.71-.75,1.18-.94a20.13,20.13,0,0,0,5.9-.54c1.43.18-.24.39.27.56l1.26-.53c.31,0,.21.16.16.24,1.06-.22.08-.64,1.75-.85.44-.71,3.46,1,5.52.14.51.17-.24.39-.08.64A28.14,28.14,0,0,0,87.05,152l2,.4c-1.47-.46.4-1.06,2-1.54-.52-.22-1-.42-1.27-.52l2.62-.36c.31.1,0,.32-.37.59l.47-.16c.94.23.46.61-.21,1l-.94-.39c-.64.4-1.24.83-1.11,1.21a3.24,3.24,0,0,1,.86-.18c-.17.1-.28.2-.2.26s.36-.08.79-.24l.6.71.14-.29,3.42.42c2.44-.73,4.57-1.8,8.45-2.09-1,.52-.21.85-.26,1.47-1.06-.66-3,.28-5,.16,1,.06.82.36.55.46l3.58-.6c-.08.5.77.38,1.7.59-.71-1,2.68-.67,4.14-1,.09.34-.26.67-2,.59,2,.76,2.54-1.17,4.47-.52-.44,0-.67,0-.85.13,1-.3,3.5-.05,2.92.24h-.44c2.89.14,8.79.09,9.23-.75a3.72,3.72,0,0,1-.56,1.19l5.19-2.79c-.46.72,1.25,2.49-1.15,2.86a8.15,8.15,0,0,0,3,0c-.47-.11-1.16-1.08-.51-1.13a17.46,17.46,0,0,0,3.37,1.18c-.7-.16.1-1.3,1.21-1.24-.18.17.07,1.14-.34,1.25l2.79-1.07c-.7.19-.14.95.47,1.28-.28-.23,2.39.07,3.12,0l-1.16-.29c3.11.26,3.13-1.53,6.21-1.33-.4.21-1,1.36.51,1.61a11.17,11.17,0,0,1,2.32-1.37,6.47,6.47,0,0,1,2-.47,5.16,5.16,0,0,1,1.11,0,4,4,0,0,1,.58.11,4.21,4.21,0,0,1,.65.23,5.38,5.38,0,0,1,.39.63,6.09,6.09,0,0,1,2.16,1.79,6.23,6.23,0,0,0-1.76-.93,6,6,0,0,0-2.23-.31,18,18,0,0,0-3.77.6c1,.45.25.4,1.67.73.38.44-.86.23-1.29.19a10.55,10.55,0,0,1,1.53.51c.24.1.46.21.68.32a1,1,0,0,1,.18.12l.09.08c.18-.29.5-.31.87-.16s.67.45,1,.36a2.26,2.26,0,0,0-1-.71,2.13,2.13,0,0,0-.51-.13c-.09,0-.15,0-.28,0l-.42-.09c0-.33.71-.55,1.36-.58a2.57,2.57,0,0,1,1.26.39,2.14,2.14,0,0,1,.94,1.28,1.68,1.68,0,0,1,0,.45c-.15.3-.5.13-.85,0a2,2,0,0,0-.83-.25.82.82,0,0,1,.26.79c-.06.36-.32.64-.45.64a1.3,1.3,0,0,0,0-.65c-.29.26-.26.55-.44.89a1,1,0,0,1-.41.42,1.9,1.9,0,0,1-1,.14c-.57.15-1.8-.47-1.82-.08,1,.63,1.81,2.86,1.12,3.58a12.93,12.93,0,0,1-2.09-.19,15.88,15.88,0,0,1-2.37-.51c-1.14-.52,1.54-1.55.57-2,0,.19-.62.46-.87.55-.71-.11.25-.59-1.26-.4-.2.7-3.09.17-.68.63-1.47.3-1.58,0-3.33.13.59.4-1.45,1.61-2.93,1.91.08-.18-.27-.38-.44-.47-3.05.16-4.71,0-7.55.17-.27-.14-1.66-.24-1.09-.58a4.64,4.64,0,0,1-1.64.49c-1.73-.47,1.95-.23.61-.85-.08.41-2.23.71-3.46,1,.43.58,2.89-.09,4.12-.43.07.84-2,1.88-5,2.49-2.34.38-1.06-.47-1.46-.32-4.44.18-3.67,1.73-7.36,1.43-1.49-.39-.16-1.06-.52-1.41,1.9-.38,3,.09,4.27,0l-1.62-.13a6.68,6.68,0,0,1,2.58-.36c-1.26-.4-7.48.45-10.94.57-.58.27-1.59.63-1.06.76l1.06-.24c1,.27-1.91.9-.53.89a18.88,18.88,0,0,1-4.81,1.55l-.52-.5c.09.17,1.36,0,1.87-.27a6.07,6.07,0,0,1-2,.26c-.78.08-1.57.23-1.88.75.48,0,1,0,1.45,0-1.29.67-2.67,1.85-4.3,2.33.94.25.35-.22,1.71,0-.64-.23.37-.62,1.34-.92s1.87-.56.91-.77c1.43.43,2.2-.26,4,.08-.09-.18-.65-.27.79-.45a1.74,1.74,0,0,1,.28-.24h0c.06,0,.06-.05,0,0a1.82,1.82,0,0,1-.79-.17c.62-.6,3-1,3.71-1.32.9,0-.33.28.18.43l1.14-.52c.18.43,2.42.48.39,1l1.86-.18a10.47,10.47,0,0,0,3.57-.17c.9,0,2.22-.67,1.47-.26l3-.49,0,.11c3-.16,6-1.19,9.47-.62a17.15,17.15,0,0,1,3.68-.4l.36.37c1.26-.23,3.86.11,4.38-.34,1.46.94,6.22-.22,8.49-.2l0-.51c.39,0,.77-.05,1.16-.09l.59-.07.7-.11a13.67,13.67,0,0,0,3-.91l-.28-.38c.2-.11.42-.22.65-.32s.6-.26.88-.41a10,10,0,0,0,1.88-1.15,5.61,5.61,0,0,0,1.52-1.9,4.81,4.81,0,0,0,.38-2.56,5.41,5.41,0,0,0-.24-.94,1.64,1.64,0,0,1,.35.93,5.52,5.52,0,0,1,0,1,8.2,8.2,0,0,0,.12-1,4.63,4.63,0,0,0-1.44-3.13,6.87,6.87,0,0,0-1.46-1.11,8.75,8.75,0,0,0-1.58-.71c-1.76-.57-3.41-.68-4.81-1.19a4.67,4.67,0,0,1-1.84-.17.51.51,0,0,0,.18,0l-.3,0c-.33-.1-.66-.2-1-.29a4.94,4.94,0,0,0,.85.28,17,17,0,0,0-2.25.1l-.33-.49h-.19c-.8-.2-.65.21-.23.59a5.64,5.64,0,0,0-1.09.26c-.63-.79-2.14.21-3-.64-.56.39-4.1.22-4.55,1.06,0-.11-.27-.17.17-.17a7,7,0,0,0-2.63,0l-.37-.62-2,.79c-1.19-.39-1.69-.61-.49-1.07-2.89.69-2.34.24-4.81.93l.13-.39c-.88,0-2.29.52-2.81.18-2-.77-9.71-.19-14.75-.88,1,1.17-2.34-.52-2.54.39-.3-.28-1-.43-.18-.67-2.57.27-3.87-.43-5.64.34-.3-.27.55-.4.28-.57-.2.07-.81.25-1.08.09s.37-.24.78-.36c-2.63.06-2.89.92-3.07,1.71a3.33,3.33,0,0,0-3,.23c-.47-.26-1.25-.52.38-.63-.91,0-5.61-.32-5.69.32a3.28,3.28,0,0,0-1.53,0c-2.06,0-2.24-.06-4.26,0l.56.09c-.78.79-1.68.2-3.31.33l0-.08c-3.75-.48-1.61.3-5.31-.26l.21.48c-.32,1-3.28-.53-5.41-.08l.78.25c-1.16.39-3.3-1.31-4.46-1.42-.25-.09.4-.15.75-.23-3-.56-.38.65-2.64.81-.41-.33.53-.86-1-.92-.72-.27-4.38,1-6.34.16.41.31.84.61-.2.7a12.05,12.05,0,0,1-2.81-.73,4.72,4.72,0,0,0-2.71-.37c-.17-.12-.22-.21-.22-.27-1.2,0-3.71-.84-4.53-.76-.16-1-1.92-1.51-3-2.31s-1.48-2-.7-2a4.2,4.2,0,0,1,.67-2.53l.09.15c.53-.78,1-1.3,1.26-1.75s.47-.8.7-1.18c.48-.22.25.12.26.21,1.41-.78,2.23-1.1,3-1.49s1.37-.84,2.65-1.58l.41.41a9.22,9.22,0,0,1,3.12-.37,33.12,33.12,0,0,0,5.15-.37c0,.06-.1.15-.37.23,3.84-.68,9.41,1.36,10.84-.46l2.6-.43c-3.37-.16.51-.79-.88-1.09,1.32-.1,3.43.55,1.8.64l-.26-.09c-.6.94,4.19.35,4.1,1,6.63,0,13.1.51,19.31.57l-.71-.73,2.16,0c.57.17.77.57-.78.54a3.42,3.42,0,0,0,2.64-.5c3,.31-1.19.85-.26.87l1.26,0-.28-.09a6.19,6.19,0,0,1,3-.57c1.18.15.6.46,1.06.49,0,.05.16.07.71,0l2.74.07-1.1-.58c1.22-.28,2.57,0,1.31-.62,1.85,1,10.19.39,11.32.71a20.17,20.17,0,0,1,5.44-.34c-.51-.13-.82-.78,1-.69-.66,1.34,3.27.59,4.71,1.56-1.29-.64,5.09-.14,3.06-1.06,1.49.12.09.51,1.22.82,3.55-.5,7.83.37,12.21.2.07-.17-.66-.44.28-.7l2.31.89c.87-.09.81-1,2.39-.4-.23-.15-.56-.37,0-.43,8.6.89,17.58-.64,26.29,1-1.17-.34-.39-.37.52-.38-.59-.09,0-.44-.1-.68l3.65.68c.67-.66,3.92,0,4.3-.67l-1.15.11c1.54-.74-2.15-1.66-1.91-2.62-1.73.84-4.54-1.27-7.38-.06-.62-.2.54-.31.2-.53a5,5,0,0,1-3.18.3l.18-.1c-4.51.08-6.44-.33-11.5-.61l.37.47a7.1,7.1,0,0,1-1.83-.34c-1.25.72,3.06,0,1.92.84-1.44-1-7.68,0-8.65-1.13-1.67,0,.49.55-1.18.53l-.44-.29-.43.38c-1.1-.07-1.65-.44-1.69-.69a7.7,7.7,0,0,0,1-.09c-1.43-.36-4,.1-4.51,0l1.61.19c-4.57.26-10.15-.15-14.56.44l.33.23c-3.37.4-2.7-.26-6.4-.08l.14-.05a9.2,9.2,0,0,1-2.75.3c.94-.26-1.75-.51-.53-.8-3.65.43-1.81.34-4.22,1.17l-.56-.38a5.38,5.38,0,0,1-2.74.6c1.52-.31-1.18-.57.52-1-3.88-.82-5.76.8-7.54-.39-1.78,1,3.36.58,2.36.79.84.34-1.47.77-2.69.66s-2.1-1.32-5.22-1.31c.31,0,.33-.07.64-.07-1.16-.26-2.28.35-3.71-.08-.81.62-1.86,0-2.09.75l2.86-.17c-1.63.2-3.15,1.12-5.82.66a6.36,6.36,0,0,1,1.55-.48c-.78-.24-1.5.15-2.31-.09.23-.79,3.48-.16,5.21-.76-.84-.34-3.28.56-2.41-.29-1.25,1.08-3.07-.15-5.18.68l.14-.48a6.82,6.82,0,0,1-1.64.28l1.11-.61c-1.71.52-3.29-.47-4.93-.19,3.43,0,.77.58,2.22.93-4.24.62-2.44-1.25-7.18-1,.65-.06,2.41.29,1.41.51a11.31,11.31,0,0,1-2.65-.54c-3.14.09.49.49-.85.78-1.07-.58-1.54.23-2.92.41v-.48c-3.58-.32-1,1-4.17.62l1.36-.67-1.68.17.35-.55a10.6,10.6,0,0,1-4.19.14c.42.34-.23.87-1.81.88-1.08-.29.6-.46-1.65-.39a1.88,1.88,0,0,1,2-.23c.11-.16.5-.3.61-.46a14.46,14.46,0,0,0-3.74-.08,4,4,0,0,1,.88.11l-3.26.66c-.52-.18-.11-.32.3-.47-.67.06-1.12.28-2.11.33.25-.39.19-.8,1.58-1l-3.16.47c-.21-.17-1.67-.4-1.26-.56-1.83-.16-4.39,1-6.87,1.23a3.06,3.06,0,0,1-.85.41,27.85,27.85,0,0,0-3.43.79,9.5,9.5,0,0,0-3.43,2c-.6.09-1.19.25-1.8.4-1,.89-.31.65.15.57s.69,0-.67,1.43c-.89,1.1-1.12,1.26-1.32,1.16s-.27-.42-.66,0a16.43,16.43,0,0,0-.84,3,12.64,12.64,0,0,0-.12,4.44A5.8,5.8,0,0,1,34.28,141.94Zm23.07,11.54c-.49.08-1.48.38-1.83.07C56.1,153,56.51,153.29,57.35,153.48Zm37.34-1.74a2.4,2.4,0,0,1-1.52-.09A5.06,5.06,0,0,1,94.69,151.74Zm16.61,13.59s0,0,0,0C112.41,165.4,112,165.36,111.3,165.33Zm-2.17,0c-.21.09-.18.16-.09.21a2.36,2.36,0,0,1,1.18-.22C110.05,165.23,109.76,165.16,109.13,165.34Zm-7.78-30.7-.43-.13C101.89,134.38,101.62,134.5,101.35,134.64Z"/><path class="cls-3" d="M90.47,152.44a.45.45,0,0,1-.21-.26C90.08,152.26,90.08,152.35,90.47,152.44Z"/><path class="cls-3" d="M47.55,130.7h.08a.2.2,0,0,0,.07-.1Z"/><path class="cls-3" d="M142.77,158.7a2.58,2.58,0,0,1,.89.18C143.67,158.76,143.46,158.68,142.77,158.7Z"/><path class="cls-3" d="M98.33,168.24l1.22-.49a3.37,3.37,0,0,1-1.18.18C98.43,168,98.72,168.12,98.33,168.24Z"/><path class="cls-3" d="M86.83,171.23c-.08.2-.27.35-.33.56l.21.08C87.19,171.17,87.51,170.61,86.83,171.23Z"/><path class="cls-3" d="M96.65,167.1c-.23-.35-1,.06-1.86.49l.16-.06C94.91,168.17,95.75,167.59,96.65,167.1Z"/><path class="cls-3" d="M94.59,167.69c-.27.11-.53.26-.8.36C93.78,168.31,94.12,167.93,94.59,167.69Z"/><path class="cls-3" d="M106.46,165.94c-.47,0-.21.55-.49.43C105.54,166.94,108.89,165.35,106.46,165.94Z"/><polygon class="cls-3" points="95.46 166.1 95.97 166.45 96.35 165.9 95.46 166.1"/><path class="cls-3" d="M103.06,164.45c-.53.05-1,.1-1.57.17,0,.08-.14.17-.37.26C102.06,164.68,103.12,164.59,103.06,164.45Z"/><path class="cls-3" d="M101.12,164.88a4.36,4.36,0,0,0-1.21.37C100.17,165.18,100.73,165,101.12,164.88Z"/><path class="cls-3" d="M97.47,165.27l.47,0c.37-.09.72-.19,1.09-.27C98.5,165.06,98,165.17,97.47,165.27Z"/><path class="cls-3" d="M119.89,162.8l1.71-.27c.16-.18-.31-.25-.95-.14C120.25,162.54,119.62,162.65,119.89,162.8Z"/><path class="cls-3" d="M114.59,161.81a1.68,1.68,0,0,1,.79.32v-.62Z"/><path class="cls-3" d="M119.6,161.3c.16-.18,2.46-.67.28-.48C119.72,161,118,161.27,119.6,161.3Z"/><polygon class="cls-3" points="145.55 160.2 145.11 160.24 145.25 161.25 145.55 160.2"/><path class="cls-3" d="M141,153.85c2,.3.52-.62,2.28-.25.48-.22-1.43-.31-1-.5C141.15,153.32,140.49,153.17,141,153.85Z"/><path class="cls-3" d="M142.36,153.1A5.3,5.3,0,0,0,143,153,3.13,3.13,0,0,0,142.36,153.1Z"/><polygon class="cls-3" points="181.49 135.41 182.8 135.63 181.96 135.28 181.49 135.41"/><path class="cls-3" d="M184,134.66l.3.65.79-.58A2.19,2.19,0,0,1,184,134.66Z"/><path class="cls-3" d="M61.08,154.8l.1-.15c-.21-.17-.52-.18-1.15-.2Z"/><path class="cls-3" d="M42.43,151.84l.31.13c-.13-.25-.25-.52-.38-.78Z"/><path class="cls-3" d="M35.94,135.67a12,12,0,0,0-1.53,2.24C35.31,136.18,36.65,136,35.94,135.67Z"/></g></g></svg>