<svg xmlns="http://www.w3.org/2000/svg" viewBox="0 0 208.48 208.48"><defs><style>.cls-1{fill:#fff;}.cls-2{fill:#335463;}.cls-3{fill:#28abe2;}.cls-4{fill:#28aae2;}.cls-5{fill:none;stroke:#28abe2;stroke-miterlimit:10;}</style></defs><title>ALBF_Logo_sansBorder</title><g id="Layer_2" data-name="Layer 2"><g id="Layer_1-2" data-name="Layer 1"><circle class="cls-1" cx="104.24" cy="104.24" r="104.24"/><path class="cls-2" d="M18.36,94.86H38.89v5.06H24.34v6.62H37.09v5H24.34v12.07h-6Z"/><path class="cls-2" d="M46.8,94.82h6.11V112.5a9.94,9.94,0,0,0,.7,4.33c.73,1.62,2.31,2.42,4.75,2.42s4-.8,4.73-2.42a10.1,10.1,0,0,0,.7-4.33V94.82H69.9v17.69a14.83,14.83,0,0,1-1.42,7.15q-2.66,4.7-10.12,4.69t-10.14-4.69a14.83,14.83,0,0,1-1.42-7.15Z"/><path class="cls-2" d="M79.68,94.82h6v23.61h14.37v5.18H79.68Z"/><path class="cls-2" d="M108.12,94.82h6v23.61h14.38v5.18H108.12Z"/><path class="cls-2" d="M157.84,99.92H142.6V106h14v5h-14v7.4h15.94v5.18H136.73V94.82h21.11Z"/><path class="cls-2" d="M185.68,95.56a7.14,7.14,0,0,1,2.69,2,8.8,8.8,0,0,1,1.45,2.43,7.94,7.94,0,0,1,.53,3,8.66,8.66,0,0,1-1,4,5.8,5.8,0,0,1-3.42,2.8,5.34,5.34,0,0,1,2.82,2.27,9.44,9.44,0,0,1,.83,4.51v1.93a15.19,15.19,0,0,0,.16,2.68,2.43,2.43,0,0,0,1.11,1.64v.72h-6.64c-.18-.64-.31-1.15-.39-1.54a14.58,14.58,0,0,1-.25-2.48l0-2.68c0-1.84-.34-3.06-.95-3.67s-1.76-.92-3.43-.92h-5.88v11.29h-5.87V94.82h13.77A12.71,12.71,0,0,1,185.68,95.56Zm-12.44,4.26v7.73h6.48a6.94,6.94,0,0,0,2.89-.46,3.25,3.25,0,0,0,1.71-3.25q0-2.61-1.65-3.51a6,6,0,0,0-2.78-.51Z"/><path class="cls-3" d="M109.28,82.08c-.74,0-1.76,0-2.23,0a3.33,3.33,0,0,1-3-2.35,2.65,2.65,0,0,1-.08-1,10.33,10.33,0,0,1-3.48,2.49,10.5,10.5,0,0,1-4.24.86,10,10,0,0,1-2.63-.35,6.4,6.4,0,0,1-2.22-1.09,5.53,5.53,0,0,1-1.52-1.81,5.45,5.45,0,0,1-.56-2.55q0-5.15,7.25-6.07l3.32-.43q.68-.08,1.62-.24A6.14,6.14,0,0,0,103,69.1a1.26,1.26,0,0,0,.74-.92,5.19,5.19,0,0,0,.14-1.19,3.93,3.93,0,0,0-1.18-2.94,5.63,5.63,0,0,0-4-1.14,11.49,11.49,0,0,0-2.28.21,5,5,0,0,0-1.82.74,4.24,4.24,0,0,0-1.29,1.4,6,6,0,0,0-.66,2.2H90.23a7.13,7.13,0,0,1,.84-3.06,6.26,6.26,0,0,1,1.86-2.06,8,8,0,0,1,2.65-1.17,13.58,13.58,0,0,1,3.18-.37,12.61,12.61,0,0,1,2.94.33,7.1,7.1,0,0,1,2.4,1.06,4.86,4.86,0,0,1,1.6,1.92,6.76,6.76,0,0,1,.59,3c0,3.09.13,6.19,0,9.28-.05,1-.13,2.7.81,3.24a1.19,1.19,0,0,0,.48.15m-3.7-8.81a12.19,12.19,0,0,1-3.08.81c-1,.13-2.08.24-3.12.31a9.08,9.08,0,0,0-4.31,1.21,3.45,3.45,0,0,0-1.54,3.08A3.28,3.28,0,0,0,92.21,78a3.52,3.52,0,0,0,1,1.13,4.28,4.28,0,0,0,1.45.66,6.2,6.2,0,0,0,1.66.22,11.37,11.37,0,0,0,2.8-.35,7.82,7.82,0,0,0,2.42-1.07,5.41,5.41,0,0,0,1.7-1.83,5.15,5.15,0,0,0,.64-2.63Z"/><path class="cls-3" d="M111.79,74.35a5.16,5.16,0,0,1,3.29-1,5.69,5.69,0,0,1,3.46,1,3.61,3.61,0,0,1,.93,4.56,3.54,3.54,0,0,1-.92.87h1.13v2.31h-10.4l-1.7-2.34h4.3a3.54,3.54,0,0,1-.95-1,3,3,0,0,1-.41-1.62A3.34,3.34,0,0,1,111.79,74.35Zm5.46,2a3.3,3.3,0,0,0-1.92-.51,4.22,4.22,0,0,0-1.58.25,1.74,1.74,0,0,0-1.19,1.74,1.76,1.76,0,0,0,1.16,1.77,4.49,4.49,0,0,0,1.6.24,3.36,3.36,0,0,0,1.91-.51,1.76,1.76,0,0,0,.75-1.57A1.61,1.61,0,0,0,117.25,76.31Z"/><path class="cls-3" d="M109.65,68.47v2.37h-2.17V68.47Zm1.07,2.37V68.47h9v2.37Z"/><path class="cls-3" d="M112.47,66.28H110.8V65h-2.5V62.71h2.5V61.25h1.67v1.46h4.73a1.09,1.09,0,0,0,.69-.14,1.57,1.57,0,0,0,.13-.86v-.22c0-.08,0-.16,0-.24h1.75l0,1.11a2.93,2.93,0,0,1-.58,2.27A1.68,1.68,0,0,1,118,65h-5.51Z"/><path class="cls-4" d="M89.85,84.19h.74V89h2.73v.64H89.85Z"/><path class="cls-4" d="M95.46,84.19h.74v5.44h-.74Z"/><path class="cls-4" d="M102.58,84.19v.65h-1.84v4.79H100V84.84H98.16v-.65Z"/><path class="cls-4" d="M108.43,84.19v.65H106.6v4.79h-.74V84.84H104v-.65Z"/><path class="cls-4" d="M110.33,84.19h.74V89h2.73v.64h-3.47Z"/><path class="cls-4" d="M115.85,84.19h3.94v.67h-3.23v1.65h3v.63h-3V89h3.29v.64h-4Z"/><path class="cls-3" d="M18.35,133.69c-.25,0-.16.38-.2.46C18.57,134.05,18.34,133.58,18.35,133.69Z"/><polygon class="cls-3" points="22.51 132.74 22.43 132.91 23.05 132.49 22.51 132.74"/><path class="cls-3" d="M26.4,132.74c-.37-.71-1.41.12-2.1-.13l-.12-.17-.31.58A8.6,8.6,0,0,1,26.4,132.74Z"/><path class="cls-3" d="M28.47,134.29c-.12-.28.45-.24-.48-.09l.09.07A3.39,3.39,0,0,1,28.47,134.29Z"/><path class="cls-3" d="M28.08,134.27c-.41,0,.27.24,0,0Z"/><path class="cls-3" d="M30,134.11l-.54.25c.11.16.59.2.42.32C30.4,134.55,30.28,134.38,30,134.11Z"/><path class="cls-3" d="M30.48,133.59l-.28.11C30.25,133.77,30.33,133.79,30.48,133.59Z"/><path class="cls-3" d="M29.61,133.92l.59-.22c-.08-.12-.08-.35-.27.08C30,133.57,29.86,133.77,29.61,133.92Z"/><path class="cls-3" d="M29.27,133.81c-.3-.16-.69-.25-.15-.5C28.09,133.41,28.24,133.91,29.27,133.81Z"/><path class="cls-3" d="M26.6,132l-.41-.21-.35.24C26,131.92,26.62,132.23,26.6,132Z"/><path class="cls-3" d="M33.33,134.48c0-.15-.18-.4-.22-.6l-.4.18C32.92,134.16,33.31,134.26,33.33,134.48Z"/><path class="cls-3" d="M33.11,133.88l.6-.26C33.17,133.59,33.08,133.72,33.11,133.88Z"/><polygon class="cls-3" points="30.58 132.8 29.6 133.35 30.77 132.79 30.58 132.8"/><polygon class="cls-3" points="35.61 134.5 35.27 134.85 35.88 134.32 35.61 134.5"/><path class="cls-3" d="M37.12,134.44c-.25.29.34.49.08.67a2.44,2.44,0,0,0,1.08-.53A1.34,1.34,0,0,1,37.12,134.44Z"/><path class="cls-3" d="M38.81,134.26a3.11,3.11,0,0,0-.53.32A1.6,1.6,0,0,0,38.81,134.26Z"/><path class="cls-3" d="M34.72,133.7a.74.74,0,0,0,.47.43L35,133.7Z"/><path class="cls-3" d="M35,133.69h0l.5,0Z"/><path class="cls-3" d="M34.66,133.7h.06S34.69,133.64,34.66,133.7Z"/><path class="cls-3" d="M32.14,133.19c.35-.24,1.08-.5.38-.86C32.26,132.62,32.67,132.83,32.14,133.19Z"/><path class="cls-3" d="M34.37,133.16l-.63-.1c0,.12.13.28-.05.4Z"/><polygon class="cls-3" points="34.68 133.03 34.37 133.16 34.61 133.2 34.68 133.03"/><path class="cls-3" d="M37.72,133.86a1.74,1.74,0,0,1,.91-.23,4.51,4.51,0,0,0-1.09-.13C37.49,133.63,37.33,133.87,37.72,133.86Z"/><path class="cls-3" d="M36.37,133.74l.07,0S36.37,133.67,36.37,133.74Z"/><path class="cls-3" d="M42,133.63a.56.56,0,0,1-.05-.08.2.2,0,0,0,0,.07Z"/><path class="cls-3" d="M37.48,133.42a.57.57,0,0,0-.59.15,3.32,3.32,0,0,1,.65-.07C37.56,133.44,37.57,133.4,37.48,133.42Z"/><path class="cls-3" d="M39.74,134.06a3.58,3.58,0,0,0-.48-.24C39.4,134,39.68,134.17,39.74,134.06Z"/><path class="cls-3" d="M36.53,133.83l0,0C36.58,133.94,36.56,133.9,36.53,133.83Z"/><path class="cls-3" d="M36.53,133.83a1.32,1.32,0,0,0,.36-.26,2.39,2.39,0,0,0-.45.14Z"/><path class="cls-3" d="M43,130.89a.88.88,0,0,1-1.38.33c-.61.3-.21,1.6.32,2.33,0-.17,0-.33.64-.57-.22-.21-1.39-.5-.86-.86.83-.2.68.14,1.08.35-.34-.49,1.06-.72.88-1.44l-.73.25C42.91,131.17,43.17,131,43,130.89Z"/><path class="cls-3" d="M40.72,133.51l-.26.05a2.33,2.33,0,0,1,.89.54c.43-.2.52-.34.55-.48l-1.27-.05Z"/><path class="cls-3" d="M39.3,133.56c.2-.43.82-.61.44-1.08-.75,0-.53.36-1,.55,1.22-.11-.35.24.53.48a2.8,2.8,0,0,1-.66.12,4.19,4.19,0,0,1,.63.19l0,0h0s-.07-.09,0,0,0,0,0,0a.48.48,0,0,1,0-.17c.35.09.06.12,0,.17a.14.14,0,0,0,0,.06h0l1.22-.24A3.94,3.94,0,0,0,39.3,133.56Z"/><path class="cls-3" d="M33.17,131.4s0,.07,0,.1S33.32,131.41,33.17,131.4Z"/><path class="cls-3" d="M33.67,131.66c-.09.06-.16.23-.45.19s0-.21,0-.35c-.18.11-.61.31-.07.52l.09-.06c.49.15,1.12.69,1,.74A3.1,3.1,0,0,0,33.67,131.66Z"/><path class="cls-3" d="M36.52,132.5l1-.21-.52-.37,0,.22C36.47,132.05,36.59,132.33,36.52,132.5Z"/><polygon class="cls-3" points="42.08 133.84 41.94 134.3 42.53 133.66 42.08 133.84"/><polygon class="cls-3" points="43.4 133.79 43.35 134.19 43.7 133.95 43.4 133.79"/><path class="cls-3" d="M118,128.88l.3-.11A1,1,0,0,0,118,128.88Z"/><path class="cls-3" d="M115.87,128.85l-.06.2C115.91,128.94,116,128.86,115.87,128.85Z"/><path class="cls-3" d="M75.88,133.74c.44.37.92.95.87.5l-.13-.43A1,1,0,0,1,75.88,133.74Z"/><path class="cls-3" d="M98.13,131.15,98,131l-.3.42Z"/><path class="cls-3" d="M98.43,129.36l.58.28A2.09,2.09,0,0,0,98.43,129.36Z"/><path class="cls-3" d="M129.86,128.42l.34-.44C129.66,128,129.9,128.2,129.86,128.42Z"/><path class="cls-3" d="M57,133.63a2.69,2.69,0,0,0,.93.26C57.43,133.64,57.07,133.27,57,133.63Z"/><path class="cls-3" d="M117.18,133.48c.18-.08.26-.16.26-.26C117.25,133.29,117.14,133.38,117.18,133.48Z"/><path class="cls-3" d="M59,133.89l-.2-.1a2.51,2.51,0,0,1-.89.1A.9.9,0,0,0,59,133.89Z"/><path class="cls-3" d="M172.74,128.78l.1.05C172.84,128.77,172.8,128.77,172.74,128.78Z"/><path class="cls-3" d="M185.23,133.16c-.12,0-.32,0-.51,0A1,1,0,0,0,185.23,133.16Z"/><path class="cls-3" d="M48.72,134c-.28,0,0,.05,0,0Z"/><path class="cls-3" d="M47.36,132.26a.29.29,0,0,0,.11-.21A.32.32,0,0,1,47.36,132.26Z"/><path class="cls-3" d="M61.76,131.19h0C61.7,131.11,61.72,131.12,61.76,131.19Z"/><path class="cls-3" d="M48.3,133.78a1.91,1.91,0,0,0,.36.13A1.81,1.81,0,0,0,48.3,133.78Z"/><path class="cls-3" d="M48.36,134l-.25-.05C48.08,134,48.11,134.06,48.36,134Z"/><path class="cls-3" d="M49.11,134a1.64,1.64,0,0,1-.45,0c.05,0,.08.05.06.07Z"/><path class="cls-3" d="M149.76,129.94l.06,0C150.1,129.8,150,129.83,149.76,129.94Z"/><path class="cls-3" d="M83.18,129.24l0,0h0Z"/><path class="cls-3" d="M84.19,128.92c-.43.54-.67.47-1,.35l.33,1.26Z"/><path class="cls-3" d="M123.22,128.75l-.71-.39c.85-.64,1.47-.42.81-1-.1,1.36-2.75.14-2.85,1.5l-.47-.28c.13,0,.16-.07.29-.06-.91-.65-.68,1-1.84.79-.41-.1-.7-.3-.42-.46l-.91.33c-.26,0-.19-.26.07-.23l-1.39.11v0a5.46,5.46,0,0,1-.86.68c-.35-.2.18-.15.09-.31l-.77.32c-.31-.35.32-.69.85-.64-.71-1.35-.63.34-2.18-.45l.73-.17c-.47-.77-1-.49-1.85-1,.19.25,1.63,1.21.8,1.55a1,1,0,0,0-1,.12c0-.48-.44-.37-1-.34l0-.64c-.6.19-.55.51-.9.8-.66-.06-.8-.56-1-1-1.06-.1.73.8-.52.92a3.82,3.82,0,0,0-2.55.4c-.62-.22.11-.39-.12-.58l-.54.51c-.14,0-.09-.16-.07-.24-.46.19,0,.64-.76.81-.2.7-1.49-1-2.38-.23-.22-.18.11-.39,0-.64a6.73,6.73,0,0,0-2.06,1.09l-.86-.42c.63.48-.18,1.05-.88,1.51a5.37,5.37,0,0,0,.54.54l-1.13.34c-.13-.11,0-.33.16-.59a1.73,1.73,0,0,0-.2.15c-.4-.24-.2-.61.09-1,.14.12.28.26.41.39a1.83,1.83,0,0,0,.48-1.19.75.75,0,0,1-.37.17c.07-.1.12-.2.09-.26s-.16.07-.34.24l-.26-.72-.06.29-1.48-.45c-1,.72-2,1.77-3.64,2.07.41-.53.08-.86.11-1.48.45.66,1.29-.27,2.16-.14-.45-.07-.35-.37-.24-.47l-1.54.6c0-.51-.33-.38-.74-.59.31,1-1.15.67-1.78,1,0-.33.11-.68.88-.6-.85-.75-1.1,1.18-1.93.54.19,0,.29,0,.36-.13-.43.3-1.5.06-1.25-.23h.18c-1.24-.11-3.79,0-4,.85a5.79,5.79,0,0,1,.24-1.2l-2.23,2.86c.2-.73-.55-2.47.48-2.88a1.59,1.59,0,0,0-1.29,0c.2.11.51,1.06.23,1.12-.76-.81-.53-.43-1.46-1.12.3.15,0,1.3-.52,1.26.08-.17,0-1.13.14-1.25l-1.19,1.13c.29-.21,0-1-.22-1.27.13.22-1,0-1.35.09l.51.26c-1.35-.17-1.33,1.58-2.67,1.52.16-.23.4-1.43-.28-1.57-.31.57-1.38,2.77-2.56,3.21l-.23-.33-.9.38a20.84,20.84,0,0,1,3-3.4c-.5-.26-.14-.39-.89-.36-.27-.31.41-.47.63-.49l-1.76-.2c.08.68-1.34.68-1.27,1.24l1.9-.7c.08.67-1.1,1.91-2.34,1.79-.32-.27.23-1.2.21-1.42-.16.23-1.19.44-1.3.28l.53-.36c-.69-.25-1.13.89-2,.25-.28,0-.85-.87-.9-.47a6.1,6.1,0,0,1,.24,3.72,9.1,9.1,0,0,1-1.83-1.12c-.48-.6.71-1.43.3-1.95,0,.19-.27.41-.38.49-.31-.16.12-.57-.53-.49-.11.68-1.34-.06-.31.58-.65.19-.69-.14-1.44-.11.24.44-.68,1.5-1.32,1.69a.76.76,0,0,0-.18-.5c-1.31-.06-2-.37-3.25-.38-.11-.16-.7-.36-.45-.66a1.15,1.15,0,0,1-.72.37c-.73-.59.85-.09.29-.8-.05.4-1,.55-1.52.8.17.61,1.25.11,1.79-.13,0,.84-.94,1.72-2.22,2.11-1,.21-.44-.54-.62-.42-1.91-.15-1.63,1.47-3.22.86-.63-.53,0-1.07-.17-1.45.83-.21,1.28.34,1.84.32l-.69-.26a1.34,1.34,0,0,1,1.12-.16c-.53-.48-3.24-.09-4.71-.54-.27.18-.72.37-.51.59l.47-.08c.43.44-.88.6-.29.8a3,3,0,0,1-2.21.54l-.16-.61c0,.18.57.36.82.18-.37.27-1.35-.83-1.76,0l.62.43c-.63.3-1.4,1-2.19.76.36.61.18-.07.74.64-.48-.88,2,0,1.23-.89.57.82,1,.35,1.73,1,0-.2-.27-.39.39-.29a.61.61,0,0,1,.15-.17h0a.05.05,0,0,0,0,0s0,0,0,0a.77.77,0,0,1-.33-.31c.32-.46,1.37-.45,1.72-.69.39.1-.16.23,0,.45l.53-.36c.05.45,1,.75.11,1l.83,0a2,2,0,0,0,1.57.16c.39.1,1-.5.64-.14l1.3-.28v.11c1.28.06,2.63-.74,4.09.07a3.27,3.27,0,0,1,1.6-.13l.14.39c.55-.13,1.65.39,1.89,0,.6,1,2.68.22,3.65.41l0-.51a7.31,7.31,0,0,0,2.14-.32l0-.45c.72-.36,1.84.32,3,.28-.07.17-.36.12-.56,0,1.35,1,2.85-.74,4.08,0a.7.7,0,0,1,.74,0l-.08,0h.13c.13.07.27.16.42.23a2,2,0,0,0-.36-.24,3.9,3.9,0,0,0,1-.17l.15.48.08,0c.34.18.27-.22.09-.59a1.51,1.51,0,0,0,.46-.29c.28.78.92-.26,1.31.57.23-.4,1.76-.3,1.94-1.15,0,.11.12.16-.07.17a1.35,1.35,0,0,0,1.13-.05l.17.61.85-.82c.52.37.73.59.22,1.06,1.24-.72,1-.27,2.06-1l0,.4c.38,0,1-.55,1.21-.22.85.75,4.18.1,6.35.8-.42-1.17,1,.52,1.1-.38.12.27.43.43.07.67,1.11-.27,1.67.44,2.43-.32.13.27-.24.4-.12.56.09-.06.35-.24.46-.07s-.16.23-.33.35c1.13,0,1.24-.9,1.32-1.69.58.37.86.32,1.28-.2.2.26.53.53-.17.63.39,0,2.41.38,2.45-.26.13.16.55,0,.66,0a11.24,11.24,0,0,0,1.83,0l-.24-.11c.35-.77.73-.17,1.43-.26l0,.08c1.61.55.69-.27,2.28.37l-.08-.48c.14-1,1.4.6,2.32.21l-.33-.27c.51-.36,1.41,1.4,1.91,1.53.12.09-.17.14-.32.21,1.32.61.17-.63,1.15-.78.19.34-.23.87.43.93.34.27,1.93-1.1,2.84-.45-.2-.26-.4-.52.06-.72.7-.09,1.9,1,2.53.16a.33.33,0,0,1,.13.21c.53-.21,1.74-.35,2.06-.8.5,1.66,3.34-.81,3.33.72l1.65-.08,0,.16a1.88,1.88,0,0,0,1.8-.64c.24.11.06.25,0,.33a3,3,0,0,0,3-.52l.14.5c.35-.29,2.23.78,3.74.2a.38.38,0,0,1-.17.22c1.7-.58,4.08,1.37,4.7-.43l1.12-.45c-1.45-.14.22-.78-.38-1.08.57-.1,1.48.55.78.64l-.11-.09c-.26.94,1.8.33,1.76,1,2.86,0,5.65.48,8.33.52l-.31-.73.93,0c.25.17.33.57-.34.54.35.41,1.12-.35,1.14-.51,1.31.3-.51.86-.11.87l.54,0-.12-.09c.44-.3.48-.61,1.28-.58.51.15.26.46.46.48,0,.06.07.08.31,0l1.18.07-.48-.58c.53-.29,1.11,0,.57-.62.8,1,4.39.36,4.88.67a3.91,3.91,0,0,1,2.34-.36c-.22-.12-.35-.77.42-.69-.28,1.34,1.41.58,2,1.54-.55-.64,2.19-.15,1.32-1.06.64.11,0,.5.53.81,1.53-.51,3.37.34,5.26.17,0-.18-.29-.45.12-.71l1,.88c.37-.09.34-1,1-.4-.09-.15-.24-.38,0-.43,3.71.85,7.58-.7,11.34.91-.51-.34-.17-.38.22-.39-.25-.08,0-.44-.05-.67l1.58.66c.29-.66,1.69-.05,1.85-.68l-.5.11c.67-.74-.92-1.65-.83-2.61-.74.85-2-1.26-3.17,0-.27-.2.23-.31.08-.54-.31.42-.68.5-1.37.32l.08-.1c-1.95.1-2.78-.31-5-.58l.16.47a1.59,1.59,0,0,1-.79-.33c-.54.72,1.32,0,.83.84-.62-1-3.31,0-3.73-1.11-.72,0,.21.55-.51.54l-.19-.3-.18.38a.81.81,0,0,1-.73-.68c.11,0,.33-.07.45-.09-.62-.35-1.73.12-1.94,0l.69.19c-2,.27-4.37-.12-6.27.49l.14.22c-1.45.41-1.16-.25-2.76-.05l.06-.06a1.81,1.81,0,0,1-1.18.31c.4-.26-.76-.51-.23-.8-1.58.45-.78.35-1.82,1.18l-.24-.37a1.45,1.45,0,0,1-1.18.61c.65-.32-.51-.56.22-1-1.67-.82-2.48.81-3.25-.37-.76,1,1.45.57,1,.79.36.33-.63.76-1.16.66s-.91-1.31-2.25-1.29c.14,0,.14-.07.28-.07-.5-.26-1,.35-1.6-.07-.35.62-.8,0-.9.75l1.23-.18c-.7.21-1.36,1.13-2.51.69a2,2,0,0,1,.67-.49c-.33-.23-.65.15-1-.09.1-.79,1.5-.17,2.25-.77-.36-.34-1.41.57-1-.29-.54,1.09-1.32-.13-2.23.7l.06-.48a1.54,1.54,0,0,1-.71.29l.48-.61c-.74.52-1.42-.46-2.12-.18,1.47,0,.33.57,1,.92-1.82.64-1.05-1.24-3.09-1,.28-.07,1,.28.61.5a2.62,2.62,0,0,1-1.14-.53c-1.36.1.2.49-.37.78-.46-.58-.67.24-1.26.42v-.48c-1.55-.31-.41,1-1.8.63l.59-.67-.73.18.15-.55a2.05,2.05,0,0,1-1.8.14c.18.34-.1.88-.79.9-.46-.29.26-.46-.7-.39.22-.31.46-.69.88-.24,0-.16.21-.3.26-.46-.51-.33-1.26-.07-1.61-.07a.81.81,0,0,1,.37.11l-1.4.67c-.22-.18,0-.32.13-.47-.29.05-.48.28-.9.32.11-.39.08-.8.67-1l-1.33.43c-.09-.17-.69-.47-.52-.61-.74-.23-1.81.76-2.8.46a.63.63,0,0,1-.36.2c-.92-.09-1.74-.57-2.84,0L126,128c-.85.15.84.88-.58,1.15-1,.22-.38-.6-.73-.8-.51.35-1.38,1.08-2.31.5C122.69,128.7,122.93,128.81,123.22,128.75Zm-10.58.31c.21-.1.62-.41.77-.12C113.17,129.49,113,129.22,112.64,129.06Zm-16.07,1.17c.15-.16.39-.08.65.1A1,1,0,0,1,96.57,130.23ZM51.8,133.59l0,0C52.28,133.75,52.11,133.68,51.8,133.59Zm-.95-.21a.13.13,0,0,0-.05.2c.07-.12.28-.13.52-.1C51.25,133.35,51.13,133.27,50.85,133.38Zm101.91-.19-.19-.13C153,132.92,152.87,133.05,152.76,133.19Z"/><path class="cls-3" d="M98.39,129.57a.51.51,0,0,1,.09.26C98.56,129.75,98.56,129.65,98.39,129.57Z"/><path class="cls-3" d="M129.79,128.5h0a.36.36,0,0,0,0-.09Z"/><path class="cls-3" d="M65.55,129.29a.72.72,0,0,1,.37.24C65.93,129.42,65.85,129.32,65.55,129.29Z"/><path class="cls-3" d="M45.82,134.2l.61-.13a.8.8,0,0,1-.55-.16C45.89,134,46,134.19,45.82,134.2Z"/><path class="cls-3" d="M40.54,131.21c-.09.06-.19,0-.27.07l0,.22C40.67,131.49,40.93,131.31,40.54,131.21Z"/><path class="cls-3" d="M45.26,132.59c0-.4-.43-.27-.86-.19a.22.22,0,0,1,.08,0C44.35,133,44.8,132.78,45.26,132.59Z"/><path class="cls-3" d="M44.3,132.41a1.28,1.28,0,0,1-.39,0C43.86,132.65,44.07,132.47,44.3,132.41Z"/><path class="cls-3" d="M49.64,133.64c-.2-.1-.12.52-.24.36C49.18,134.52,50.75,133.37,49.64,133.64Z"/><polygon class="cls-3" points="44.91 131.26 45.06 131.76 45.3 131.35 44.91 131.26"/><path class="cls-3" d="M48.27,131.62l-.68-.14c0,.09-.07.14-.18.18C47.83,131.67,48.29,131.77,48.27,131.62Z"/><path class="cls-3" d="M47.41,131.66a1,1,0,0,0-.55.08A2.43,2.43,0,0,0,47.41,131.66Z"/><polygon class="cls-3" points="45.84 131.1 46.04 131.21 46.52 131.25 45.84 131.1"/><path class="cls-3" d="M55.59,131.72l.74-.14c.08-.18-.13-.28-.4-.21S55.47,131.55,55.59,131.72Z"/><path class="cls-3" d="M53.34,130.35c.2.1.22.21.33.38l0-.62Z"/><path class="cls-3" d="M55.51,130.2c.07-.17,1.07-.49.13-.45C55.57,129.92,54.82,130.06,55.51,130.2Z"/><polygon class="cls-3" points="66.7 130.99 66.51 131 66.53 132.01 66.7 130.99"/><path class="cls-3" d="M76.56,128.55c-.88-.24-.21.63-1,.33-.2.24.65.24.44.45C76.52,129.08,76.8,129.22,76.56,128.55Z"/><path class="cls-3" d="M76,129.33a2.09,2.09,0,0,0-.27.16A1,1,0,0,0,76,129.33Z"/><polygon class="cls-3" points="187.3 133.7 187.87 133.91 187.5 133.57 187.3 133.7"/><path class="cls-3" d="M188.39,133l.13.65.34-.59C188.74,133,188.49,133.09,188.39,133Z"/><path class="cls-3" d="M111.07,127.76l0,.15c.09.17.22.19.48.21Z"/><polygon class="cls-3" points="118.75 128.24 118.61 128.23 118.86 128.82 118.75 128.24"/><path class="cls-3" d="M125.19,127.49c-.27,0-.58.11-.84.09C124.92,127.47,125.26,128.23,125.19,127.49Z"/><line class="cls-5" x1="127.8" y1="87.2" x2="190.11" y2="87.2"/><line class="cls-5" x1="17.65" y1="87.2" x2="79.97" y2="87.2"/></g></g></svg>