<svg xmlns="http://www.w3.org/2000/svg" viewBox="0 0 208.48 208.48"><defs><style>.cls-1{fill:#fff;}.cls-2{fill:#3499cc;}.cls-3{fill:#335463;}.cls-4{fill:none;stroke:#3499cc;stroke-miterlimit:10;}</style></defs><title>ALBF_Logo_extraInk_webBlues</title><g id="Layer_2" data-name="Layer 2"><g id="Layer_1-2" data-name="Layer 1"><path class="cls-1" d="M104.16,208A103.74,103.74,0,0,1,99.73.6c1.52-.07,3.07-.1,4.59-.1a103.74,103.74,0,0,1,4.43,207.38C107.22,207.94,105.68,208,104.16,208Z"/><path class="cls-2" d="M104.32,1a103.24,103.24,0,0,1,76,173,102.6,102.6,0,0,1-71.62,33.38c-1.51.06-3,.1-4.56.1a103.24,103.24,0,0,1-76-173A102.54,102.54,0,0,1,99.75,1.1c1.52-.07,3-.1,4.57-.1h0m0-1c-1.53,0-3.07,0-4.61.1a104.24,104.24,0,0,0,4.45,208.38c1.53,0,3.07,0,4.61-.1A104.24,104.24,0,0,0,104.32,0Z"/><path class="cls-3" d="M18.36,86.86H38.89v5.06H24.34v6.62H37.09v5H24.34v12.07h-6Z"/><path class="cls-3" d="M46.8,86.82h6.11V104.5a9.94,9.94,0,0,0,.7,4.33c.73,1.62,2.31,2.42,4.75,2.42s4-.8,4.73-2.42a10.1,10.1,0,0,0,.7-4.33V86.82H69.9v17.69a14.83,14.83,0,0,1-1.42,7.15q-2.66,4.7-10.12,4.69t-10.14-4.69a14.83,14.83,0,0,1-1.42-7.15Z"/><path class="cls-3" d="M79.68,86.82h6v23.61h14.37v5.18H79.68Z"/><path class="cls-3" d="M108.12,86.82h6v23.61h14.38v5.18H108.12Z"/><path class="cls-3" d="M157.84,91.92H142.6V98h14v5h-14v7.4h15.94v5.18H136.73V86.82h21.11Z"/><path class="cls-3" d="M185.68,87.56a7.14,7.14,0,0,1,2.69,2A8.8,8.8,0,0,1,189.82,92a7.94,7.94,0,0,1,.53,3,8.66,8.66,0,0,1-1,4,5.8,5.8,0,0,1-3.42,2.8,5.34,5.34,0,0,1,2.82,2.27,9.44,9.44,0,0,1,.83,4.51v1.93a15.19,15.19,0,0,0,.16,2.68,2.43,2.43,0,0,0,1.11,1.64v.72h-6.64c-.18-.64-.31-1.15-.39-1.54a14.58,14.58,0,0,1-.25-2.48l0-2.68c0-1.84-.34-3.06-.95-3.67s-1.76-.92-3.43-.92h-5.88v11.29h-5.87V86.82h13.77A12.71,12.71,0,0,1,185.68,87.56Zm-12.44,4.26v7.73h6.48a6.94,6.94,0,0,0,2.89-.46,3.25,3.25,0,0,0,1.71-3.25q0-2.61-1.65-3.51a6,6,0,0,0-2.78-.51Z"/><path class="cls-2" d="M109.28,74.08c-.74,0-1.76,0-2.23,0a3.33,3.33,0,0,1-3-2.35,2.65,2.65,0,0,1-.08-1,10.33,10.33,0,0,1-3.48,2.49,10.5,10.5,0,0,1-4.24.86,10,10,0,0,1-2.63-.35,6.4,6.4,0,0,1-2.22-1.09,5.53,5.53,0,0,1-1.52-1.81,5.45,5.45,0,0,1-.56-2.55q0-5.15,7.25-6.07l3.32-.43q.68-.07,1.62-.24A6.14,6.14,0,0,0,103,61.1a1.26,1.26,0,0,0,.74-.92,5.19,5.19,0,0,0,.14-1.19,3.93,3.93,0,0,0-1.18-2.94,5.63,5.63,0,0,0-4-1.14,11.49,11.49,0,0,0-2.28.21,5,5,0,0,0-1.82.74,4.24,4.24,0,0,0-1.29,1.4,6,6,0,0,0-.66,2.2H90.23a7.13,7.13,0,0,1,.84-3.06,6.26,6.26,0,0,1,1.86-2.06,8,8,0,0,1,2.65-1.17,13.58,13.58,0,0,1,3.18-.37,12.61,12.61,0,0,1,2.94.33,7.1,7.1,0,0,1,2.4,1.06,4.86,4.86,0,0,1,1.6,1.92,6.76,6.76,0,0,1,.59,3c0,3.09.13,6.19,0,9.28-.05,1-.13,2.7.81,3.24a1.19,1.19,0,0,0,.48.15m-3.7-8.81a12.19,12.19,0,0,1-3.08.81c-1,.13-2.08.24-3.12.31a9.08,9.08,0,0,0-4.31,1.21,3.45,3.45,0,0,0-1.54,3.08A3.28,3.28,0,0,0,92.21,70a3.52,3.52,0,0,0,1,1.13,4.28,4.28,0,0,0,1.45.66,6.2,6.2,0,0,0,1.66.22,11.37,11.37,0,0,0,2.8-.35,7.82,7.82,0,0,0,2.42-1.07,5.41,5.41,0,0,0,1.7-1.83,5.15,5.15,0,0,0,.64-2.63Z"/><path class="cls-2" d="M111.79,66.35a5.16,5.16,0,0,1,3.29-1,5.69,5.69,0,0,1,3.46,1,3.61,3.61,0,0,1,.93,4.56,3.54,3.54,0,0,1-.92.87h1.13v2.31H109.27l-1.69-2.34h4.3a3.54,3.54,0,0,1-.95-1,3,3,0,0,1-.41-1.62A3.34,3.34,0,0,1,111.79,66.35Zm5.46,2a3.3,3.3,0,0,0-1.92-.51,4.22,4.22,0,0,0-1.58.25,1.74,1.74,0,0,0-1.19,1.74,1.76,1.76,0,0,0,1.16,1.77,4.49,4.49,0,0,0,1.6.24,3.36,3.36,0,0,0,1.91-.51,1.76,1.76,0,0,0,.75-1.57A1.61,1.61,0,0,0,117.25,68.31Z"/><path class="cls-2" d="M109.65,60.47v2.37h-2.17V60.47Zm1.07,2.37V60.47h9v2.37Z"/><path class="cls-2" d="M112.47,58.28H110.8V57h-2.5V54.71h2.5V53.25h1.67v1.46h4.73a1.09,1.09,0,0,0,.69-.14,1.57,1.57,0,0,0,.13-.86v-.22c0-.08,0-.16,0-.24h1.75l0,1.11a2.93,2.93,0,0,1-.58,2.27A1.68,1.68,0,0,1,118,57h-5.51Z"/><path class="cls-2" d="M89.85,76.19h.74V81h2.73v.64H89.85Z"/><path class="cls-2" d="M95.46,76.19h.74v5.44h-.74Z"/><path class="cls-2" d="M102.58,76.19v.65h-1.84v4.79H100V76.84H98.16v-.65Z"/><path class="cls-2" d="M108.43,76.19v.65H106.6v4.79h-.74V76.84H104v-.65Z"/><path class="cls-2" d="M110.33,76.19h.74V81h2.73v.64h-3.47Z"/><path class="cls-2" d="M115.85,76.19h3.94v.67h-3.23v1.65h3v.63h-3V81h3.29v.64h-4Z"/><line class="cls-4" x1="127.8" y1="79.2" x2="190.11" y2="79.2"/><line class="cls-4" x1="17.65" y1="79.2" x2="79.97" y2="79.2"/><path class="cls-2" d="M115,184.1c-.58.14-.25.48-.32.57C115.59,184.29,114.92,184,115,184.1Z"/><path class="cls-2" d="M122,175.24l.2.2a4.65,4.65,0,0,0-1-1.69A4.59,4.59,0,0,1,122,175.24Z"/><path class="cls-2" d="M113.24,170.25a3.5,3.5,0,0,0,2.15.58,7.77,7.77,0,0,1,2.87.57l.27.27a5.58,5.58,0,0,1,1.17-.07,9.83,9.83,0,0,0-3.7-.93A20.13,20.13,0,0,1,113.24,170.25Z"/><path class="cls-2" d="M108.47,168.2c.29.31-1.09.16,1.15.19l-.2-.09C109.22,168.29,108.94,168.26,108.47,168.2Z"/><path class="cls-2" d="M109.42,168.3c1,.06-.63-.29,0,0Z"/><path class="cls-2" d="M104.92,168.17l1.29-.18c-.26-.18-1.39-.28-1-.37C103.94,167.69,104.2,167.87,104.92,168.17Z"/><path class="cls-2" d="M103.7,168.63l.66-.07C104.25,168.49,104.08,168.45,103.7,168.63Z"/><path class="cls-2" d="M105.76,168.41l-1.4.15c.18.12.19.36.64-.05C104.88,168.72,105.16,168.52,105.76,168.41Z"/><path class="cls-2" d="M106.55,168.56c.7.2,1.62.36.33.52C109.31,169.15,109,168.62,106.55,168.56Z"/><path class="cls-2" d="M112.68,170.92l.91.34.85-.12C114,171.19,112.65,170.68,112.68,170.92Z"/><path class="cls-2" d="M97.18,167.45c-.09.14.39.42.47.62l.92-.13C98.1,167.82,97.22,167.67,97.18,167.45Z"/><path class="cls-2" d="M97.65,168.07l-1.37.18C97.48,168.36,97.72,168.24,97.65,168.07Z"/><polygon class="cls-2" points="103.44 169.42 105.76 168.98 103 169.41 103.44 169.42"/><polygon class="cls-2" points="92.1 167 92.88 166.74 91.5 167.11 92.1 167"/><path class="cls-2" d="M89.41,166.61c.14-.27.13-.48.24-.63a.67.67,0,0,1-.48.28C89.35,166.28,89.33,166.32,89.41,166.61Z"/><path class="cls-2" d="M88.76,166.19a.49.49,0,0,0,.33.08h0Z"/><path class="cls-2" d="M94,168a1.65,1.65,0,0,0-1-.53l.48.48Z"/><path class="cls-2" d="M93.48,168h0l-1.13-.14Z"/><path class="cls-2" d="M94.12,168,94,168C94,168.05,94.06,168.07,94.12,168Z"/><path class="cls-2" d="M99.84,168.88c-.82.2-2.52.37-.91.81C99.53,169.43,98.6,169.18,99.84,168.88Z"/><path class="cls-2" d="M94.73,168.6l1.44.2c0-.11-.27-.29.13-.39Z"/><polygon class="cls-2" points="94.02 168.68 94.73 168.6 94.2 168.52 94.02 168.68"/><path class="cls-2" d="M88.8,167a.6.6,0,0,1-.53-.24,2,2,0,0,1-.12-.21,1.11,1.11,0,0,0,0,.25,1.05,1.05,0,0,0,.51.57C88.84,167.23,89.05,167.09,88.8,167Z"/><path class="cls-2" d="M90.38,167.55h-.12C90.32,167.6,90.38,167.62,90.38,167.55Z"/><path class="cls-2" d="M90.6,163.1h-.13l0,.08Z"/><path class="cls-2" d="M88.71,167.42c.23.2.38.14.71.09l-.26,0-.15,0a.94.94,0,0,1-.3-.12C88.65,167.36,88.62,167.4,88.71,167.42Z"/><path class="cls-2" d="M88.62,165.67a.84.84,0,0,0-.32.28C88.45,165.83,88.71,165.72,88.62,165.67Z"/><path class="cls-2" d="M90.11,167.41h.08C90,167.28,90.05,167.33,90.11,167.41Z"/><path class="cls-2" d="M90.11,167.41a5.69,5.69,0,0,0-.69.1,3.41,3.41,0,0,0,.84,0A.51.51,0,0,1,90.11,167.41Z"/><path class="cls-2" d="M91.18,159.61c.07.4-1.19,1.47-2.59,2-.91,1.13.72,1.42,1.88,1.52-.07-.16-.16-.29.89-1.19-.25,0-1,.31-1.51.47s-.88.27-.54-.22c1.41-1.15,1.36-.68,2.23-.94-.94-.08,1.78-1.74,1.13-2.19-.49.3-.94.66-1.4,1C91.18,159.92,91.65,159.48,91.18,159.61Z"/><path class="cls-2" d="M88.81,164.45c-.08.13-.18.25-.24.37a3,3,0,0,1,1.43-.7c.45-.62.53-.81.49-1a7.86,7.86,0,0,0-1.74,1.44Z"/><path class="cls-2" d="M88,165.91a.88.88,0,0,1-.4-.54c-.1-.2-.2-.37-.54-.17-.2.57-.1.79,0,.91a2.79,2.79,0,0,1,.4.45,1.07,1.07,0,0,1,0-.59s.06,0,.12.1.25.28.4-.15a2.49,2.49,0,0,0,.18.58.86.86,0,0,1,.15-.55l0,0h0c-.06,0-.1.06-.06,0v0a.44.44,0,0,1-.16-.06c.15-.31.12,0,.16.06h.07a1.42,1.42,0,0,1,0-.5,2.5,2.5,0,0,1,.07-.26,2.64,2.64,0,0,1,.21-.39,3,3,0,0,0-.23.26.92.92,0,0,0-.13.21A1.42,1.42,0,0,0,88,165.91Z"/><path class="cls-2" d="M97.38,170.54c-.09,0-.08-.07-.08-.1C97.11,170.48,97,170.51,97.38,170.54Z"/><path class="cls-2" d="M96.23,170.21a2,2,0,0,1,1.06-.12c.57.16,0,.21,0,.35.41-.09,1.42-.24.17-.51l-.2,0a5.5,5.5,0,0,1-2.33-.9A3.45,3.45,0,0,0,96.23,170.21Z"/><path class="cls-2" d="M89.87,168.72c-.36,0-.7-.08-1-.15a3.71,3.71,0,0,1-.83-.24,3.63,3.63,0,0,0,.71.7v-.23C89.87,169.21,89.7,168.84,89.87,168.72Z"/><polygon class="cls-2" points="90.92 163.16 90.92 163.69 91.66 162.5 90.92 163.16"/><path class="cls-2" d="M93.35,161.75l.09.4c.17-.19.37-.35.56-.53Z"/><path class="cls-2" d="M44.35,143.82l-.75-.13A4.88,4.88,0,0,0,44.35,143.82Z"/><path class="cls-2" d="M49.57,145.05l.16-.17C49.47,145,49.36,145,49.57,145.05Z"/><path class="cls-2" d="M142.77,140.7c-1-.4-2.14-1-2-.55l.3.44A5.42,5.42,0,0,1,142.77,140.7Z"/><path class="cls-2" d="M91.07,142.84l.3.13.68-.42Z"/><path class="cls-2" d="M90.38,144.65,89,144.38A9.9,9.9,0,0,0,90.38,144.65Z"/><path class="cls-2" d="M47.7,122.59l.79-.6C47.11,122.26,47.76,122.36,47.7,122.59Z"/><path class="cls-2" d="M123.18,156.47a13.68,13.68,0,0,0,2.19.11C124.3,156.41,123.43,156.09,123.18,156.47Z"/><path class="cls-2" d="M47.49,139.92c-.41,0-.59,0-.61.12C47.3,140.08,47.55,140,47.49,139.92Z"/><path class="cls-2" d="M127.88,156.39l-.47-.06a14.59,14.59,0,0,1-2,.25A4.36,4.36,0,0,0,127.88,156.39Z"/><path class="cls-2" d="M147.73,122.38l.22.05C148,122.37,147.87,122.37,147.73,122.38Z"/><path class="cls-2" d="M176.69,126.85c-.29,0-.75,0-1.19,0A5.55,5.55,0,0,0,176.69,126.85Z"/><path class="cls-2" d="M104.47,158.59c-.61.14-.09.06,0,0Z"/><path class="cls-2" d="M101.13,157.5c.12-.08.21-.16.21-.26A.48.48,0,0,1,101.13,157.5Z"/><path class="cls-2" d="M134.15,153.23h0C134,153.16,134,153.17,134.15,153.23Z"/><path class="cls-2" d="M103.51,158.56a5.64,5.64,0,0,0,.81,0C104.19,158.53,103.94,158.54,103.51,158.56Z"/><path class="cls-2" d="M103.67,158.74l-.54.06C103.07,158.88,103.14,158.91,103.67,158.74Z"/><path class="cls-2" d="M105.33,158.43a9.42,9.42,0,0,1-1,.11c.12,0,.18,0,.15.05Z"/><path class="cls-2" d="M94.4,123.37l.14,0C95.2,123.23,94.91,123.26,94.4,123.37Z"/><path class="cls-2" d="M125.71,144.85l.08,0h-.1Z"/><path class="cls-2" d="M123.38,145.14a3.06,3.06,0,0,1,2.31-.32l-.75-1.26Z"/><path class="cls-2" d="M34.28,133.94a7,7,0,0,0-.21,2.61,7,7,0,0,1-.53-3.7c.07-.66,0-.69-.56.54.32.15.36.88.53,1.92a8.87,8.87,0,0,0,1.31,3.51,7.31,7.31,0,0,0,2.35,2.28c.72.41,1.26.51,1.49.26.32.3.64.58,1,.85-.31-.17-.39-.13-.7-.31,1.86,1.65,2-.05,4.59,1.16.92.43,1.55.81.84.76.75.1,1.5.22,2.26.27s.42.37-.21.2c1.12.23,2.24.42,3.36.55l0,0c.51-.14,1.62-.31,2.16-.41.81.29-.44.1-.25.29.63,0,1.25-.08,1.86-.15.72.4-.82.65-2.1.44a1.71,1.71,0,0,0,1.84.62,7.5,7.5,0,0,1,3.38.2c-.58,0-1.16.08-1.75.1,1.09.84,2.47.6,4.43,1.09-.47-.23-3.91-1.28-1.91-1.57a5,5,0,0,0,2.36-.1c0,.48,1,.37,2.33.31l-.07.65c1.39-.21,1.27-.54,2.08-.85a2.42,2.42,0,0,1,2.24.92c2.45,0-1.72-.75,1.18-.94a20.15,20.15,0,0,0,5.9-.54c1.43.18-.24.39.27.56l1.26-.53c.31,0,.21.16.16.24,1.06-.22.08-.64,1.75-.85.44-.71,3.46,1,5.52.14.51.17-.24.39-.08.64A28.14,28.14,0,0,0,87.05,144l2,.4c-1.47-.46.4-1.06,2-1.54-.52-.22-1-.42-1.27-.52l2.62-.36c.31.1,0,.32-.37.59l.47-.16c.94.23.46.61-.21,1l-.94-.39c-.64.4-1.24.83-1.11,1.21a3.24,3.24,0,0,1,.86-.18c-.17.1-.28.2-.2.26s.36-.08.79-.24l.6.7.14-.28,3.42.42c2.44-.73,4.57-1.8,8.45-2.09-1,.52-.21.85-.26,1.47-1.06-.66-3,.28-5,.16,1,.06.81.36.55.46l3.58-.6c-.08.5.77.38,1.7.59-.71-1,2.68-.67,4.14-1,.09.34-.26.67-2,.59,2,.76,2.54-1.17,4.47-.52-.44,0-.67,0-.85.13,1-.3,3.5-.05,2.92.24h-.44c2.89.14,8.79.09,9.23-.75a3.72,3.72,0,0,1-.56,1.19l5.19-2.79c-.47.72,1.25,2.49-1.15,2.86a8.14,8.14,0,0,0,3,0c-.47-.11-1.16-1.08-.51-1.13a17.46,17.46,0,0,0,3.37,1.18c-.7-.16.1-1.3,1.21-1.24-.18.17.07,1.14-.34,1.25l2.79-1.07c-.7.19-.14.95.47,1.28-.28-.23,2.39.07,3.12,0l-1.16-.29c3.11.26,3.13-1.53,6.21-1.33-.4.21-1,1.36.51,1.61a11.17,11.17,0,0,1,2.32-1.37,6.47,6.47,0,0,1,2-.47,5.16,5.16,0,0,1,1.11,0,4,4,0,0,1,.58.11,4.21,4.21,0,0,1,.65.23,5.38,5.38,0,0,1,.39.63,6.09,6.09,0,0,1,2.16,1.79,6.23,6.23,0,0,0-1.76-.93,6,6,0,0,0-2.23-.31,18,18,0,0,0-3.77.6c1,.45.25.4,1.67.73.38.44-.85.23-1.29.19a10.55,10.55,0,0,1,1.53.51c.24.1.46.21.68.32a1,1,0,0,1,.18.12l.09.08c.18-.29.5-.31.87-.16s.67.45,1,.36a2.26,2.26,0,0,0-1-.71,2.13,2.13,0,0,0-.51-.13c-.09,0-.15,0-.28,0l-.42-.09c.05-.34.76-.6,1.52-.57a2.57,2.57,0,0,1,1.35.57,1.87,1.87,0,0,1,.72,1.54c-.15.3-.5.13-.85,0a2,2,0,0,0-.83-.25.82.82,0,0,1,.26.79c-.06.36-.32.64-.45.64a1.3,1.3,0,0,0,0-.65c-.29.26-.26.55-.44.89a1,1,0,0,1-.41.42,1.9,1.9,0,0,1-1,.14c-.57.15-1.8-.47-1.83-.08,1,.63,1.82,2.86,1.13,3.58a12.93,12.93,0,0,1-2.09-.19,15.88,15.88,0,0,1-2.37-.51c-1.14-.52,1.54-1.55.57-2,0,.19-.62.46-.87.55-.71-.11.25-.59-1.26-.4-.2.7-3.09.17-.68.63-1.47.3-1.58,0-3.33.13.59.4-1.45,1.61-2.93,1.91.08-.18-.27-.38-.44-.47-3.05.16-4.71,0-7.55.17-.27-.14-1.66-.24-1.09-.58a4.64,4.64,0,0,1-1.64.49c-1.73-.47,1.95-.23.61-.85-.08.41-2.23.71-3.46,1,.43.58,2.89-.09,4.12-.43.07.84-2,1.88-5,2.49-2.34.38-1.06-.47-1.46-.32-4.44.18-3.67,1.73-7.36,1.43-1.49-.39-.16-1.06-.52-1.41,1.9-.38,3,.09,4.27,0l-1.62-.13a6.68,6.68,0,0,1,2.58-.36c-1.26-.4-7.48.45-10.94.57-.58.27-1.59.63-1.06.76l1.06-.24c1,.27-1.91.9-.53.89a18.88,18.88,0,0,1-4.81,1.55l-.52-.5c.09.17,1.36,0,1.87-.27a6.07,6.07,0,0,1-2,.26c-.78.08-1.57.23-1.88.75.48,0,1,0,1.45,0-1.29.67-2.67,1.85-4.3,2.33.94.25.35-.22,1.71,0-.64-.23.37-.62,1.34-.92s1.87-.56.91-.77c1.43.43,2.2-.26,4,.08-.09-.18-.65-.27.79-.45a2.32,2.32,0,0,1,.28-.24h0c.06,0,.06-.05,0,0a1.82,1.82,0,0,1-.79-.17c.62-.6,3-1,3.71-1.32.9,0-.33.28.18.43l1.14-.52c.18.43,2.42.48.39,1l1.86-.18a10.48,10.48,0,0,0,3.57-.17c.9,0,2.22-.67,1.47-.26l3-.49,0,.11c3-.16,6-1.19,9.47-.62a17.15,17.15,0,0,1,3.68-.4l.36.37c1.26-.23,3.86.11,4.38-.34,1.46.94,6.22-.22,8.49-.2l0-.51c.39,0,.77-.05,1.16-.09l.59-.07.7-.11a13.67,13.67,0,0,0,3-.91l-.28-.38c.22-.12.46-.23.71-.35l.48-.21.5-.25a8.25,8.25,0,0,0,2-1.36,4.82,4.82,0,0,0,1.45-2.27,4.16,4.16,0,0,0,.15-1.41,3.93,3.93,0,0,0-.26-1.43,1.5,1.5,0,0,1,.33.77,4.5,4.5,0,0,1,0,1.16,4.2,4.2,0,0,0-.78-3.52,7.22,7.22,0,0,0-3.15-2.29c-2-.71-3.73-.78-5.24-1.34a4.67,4.67,0,0,1-1.84-.17.51.51,0,0,0,.18,0l-.3,0c-.33-.1-.66-.2-1-.29a4.94,4.94,0,0,0,.85.28,17,17,0,0,0-2.25.1l-.33-.49h-.19c-.8-.2-.65.21-.23.59a5.64,5.64,0,0,0-1.09.26c-.63-.79-2.14.21-3-.64-.56.39-4.1.22-4.55,1.06,0-.11-.27-.17.17-.17a7,7,0,0,0-2.63,0l-.37-.62-2,.79c-1.19-.39-1.69-.61-.49-1.07-2.89.69-2.34.24-4.81.93l.13-.39c-.88,0-2.29.52-2.81.18-2-.77-9.71-.19-14.75-.88,1,1.17-2.34-.52-2.54.39-.3-.28-1-.43-.18-.67-2.57.27-3.87-.43-5.64.34-.3-.27.55-.4.28-.57-.2.07-.81.25-1.08.09s.37-.24.78-.36c-2.63.06-2.89.92-3.07,1.71a3.33,3.33,0,0,0-3,.23c-.47-.26-1.25-.52.38-.63-.91,0-5.61-.32-5.69.32a3.28,3.28,0,0,0-1.53,0c-2.06,0-2.24-.06-4.26,0l.56.09c-.78.79-1.68.2-3.31.33l0-.08c-3.75-.48-1.61.3-5.31-.26l.21.48c-.32,1-3.28-.53-5.41-.08l.78.25c-1.16.39-3.3-1.31-4.46-1.42-.25-.09.4-.15.75-.23-3-.56-.38.65-2.64.81-.41-.33.53-.86-1-.92-.72-.27-4.38,1-6.34.16.41.31.84.61-.2.7a12.05,12.05,0,0,1-2.81-.73,4.72,4.72,0,0,0-2.71-.37c-.17-.12-.22-.21-.22-.27-1.2,0-3.71-.84-4.53-.76-.16-1-1.92-1.51-3-2.31s-1.48-2-.7-2a4.2,4.2,0,0,1,.67-2.53l.09.15c.53-.78,1-1.3,1.26-1.75s.47-.8.69-1.18c.49-.22.26.12.27.21,1.41-.78,2.23-1.1,3-1.49s1.37-.84,2.65-1.58l.41.41a9.22,9.22,0,0,1,3.12-.37,33.12,33.12,0,0,0,5.15-.37c0,.06-.1.15-.37.23,3.84-.68,9.41,1.36,10.84-.46l2.6-.43c-3.37-.16.5-.79-.88-1.09,1.32-.1,3.43.55,1.8.64l-.26-.09c-.6.94,4.19.35,4.1,1,6.63,0,13.1.51,19.31.57l-.71-.73,2.16,0c.57.17.77.57-.78.54a3.42,3.42,0,0,0,2.64-.5c3,.31-1.19.85-.26.87l1.26-.05-.28-.09a6.19,6.19,0,0,1,3-.57c1.18.15.6.46,1.06.49,0,.05.16.07.71,0l2.73.07-1.09-.58c1.22-.28,2.57,0,1.31-.62,1.85,1,10.19.39,11.32.71a20.17,20.17,0,0,1,5.44-.34c-.51-.13-.82-.78,1-.69-.66,1.34,3.27.59,4.71,1.56-1.29-.64,5.09-.14,3.06-1.06,1.49.12.09.51,1.22.82,3.55-.5,7.82.37,12.21.2.07-.17-.66-.44.28-.7l2.31.89c.87-.09.81-1,2.39-.4-.23-.15-.56-.37,0-.43,8.6.89,17.58-.64,26.29,1-1.18-.34-.39-.37.52-.38-.59-.09,0-.44-.1-.68l3.65.68c.67-.66,3.92,0,4.3-.67l-1.15.11c1.54-.74-2.15-1.66-1.91-2.62-1.73.84-4.54-1.27-7.38-.06-.62-.2.54-.31.2-.53a5,5,0,0,1-3.18.3l.18-.1c-4.51.08-6.44-.33-11.5-.61l.37.47a7.1,7.1,0,0,1-1.83-.34c-1.25.72,3.06,0,1.92.84-1.44-1-7.68,0-8.65-1.13-1.67,0,.49.55-1.18.53l-.44-.29-.43.38c-1.1-.07-1.65-.44-1.69-.69a7.7,7.7,0,0,0,1-.09c-1.43-.36-4,.1-4.51,0l1.61.19c-4.57.26-10.15-.15-14.56.44l.33.23c-3.37.4-2.7-.26-6.4-.08l.14-.05a9.23,9.23,0,0,1-2.75.3c.94-.26-1.75-.51-.53-.8-3.65.43-1.81.34-4.22,1.17l-.56-.38a5.38,5.38,0,0,1-2.74.6c1.52-.31-1.18-.57.52-1-3.88-.82-5.76.8-7.54-.39-1.78,1,3.36.58,2.36.79.84.34-1.47.77-2.69.66s-2.1-1.32-5.22-1.31c.31,0,.33-.07.64-.07-1.16-.26-2.28.35-3.71-.08-.81.62-1.86,0-2.09.75l2.86-.17c-1.63.2-3.15,1.12-5.82.66a6.36,6.36,0,0,1,1.55-.48c-.78-.24-1.5.15-2.31-.09.23-.79,3.47-.16,5.21-.76-.84-.34-3.28.56-2.41-.29-1.26,1.08-3.07-.15-5.18.68l.14-.48a6.82,6.82,0,0,1-1.64.28l1.11-.61c-1.71.52-3.29-.47-4.93-.19,3.43,0,.77.58,2.22.93-4.24.62-2.44-1.25-7.17-1,.64-.06,2.4.29,1.4.51a11.31,11.31,0,0,1-2.65-.54c-3.14.09.49.49-.85.78-1.07-.58-1.54.23-2.92.41v-.48c-3.58-.32-1,1-4.17.62l1.36-.67-1.68.17.35-.55a10.6,10.6,0,0,1-4.19.14c.42.34-.23.87-1.81.88-1.08-.29.6-.46-1.65-.39a1.88,1.88,0,0,1,2-.23c.1-.16.5-.3.61-.46a14.46,14.46,0,0,0-3.74-.08,4,4,0,0,1,.88.11l-3.26.66c-.52-.18-.11-.32.3-.47-.67.06-1.12.28-2.11.33.25-.39.19-.8,1.58-1l-3.16.47c-.21-.17-1.67-.4-1.26-.56-1.83-.16-4.39,1-6.87,1.23a3.06,3.06,0,0,1-.85.41,27.85,27.85,0,0,0-3.43.79,9.5,9.5,0,0,0-3.43,2c-.6.09-1.19.25-1.8.4-1,.89-.31.65.15.57s.69,0-.67,1.43c-.89,1.1-1.12,1.26-1.32,1.16s-.27-.42-.66,0a16.43,16.43,0,0,0-.84,3,12.64,12.64,0,0,0-.12,4.44A5.8,5.8,0,0,1,34.28,133.94Zm23.07,11.54c-.49.08-1.48.38-1.83.07C56.1,145,56.51,145.29,57.35,145.48Zm37.34-1.74a2.4,2.4,0,0,1-1.52-.09A5.06,5.06,0,0,1,94.69,143.74Zm16.61,13.59s0,0,0,0C112.41,157.4,112,157.36,111.3,157.33Zm-2.17,0c-.21.09-.18.16-.09.21a2.36,2.36,0,0,1,1.18-.22C110.05,157.23,109.76,157.16,109.13,157.34Zm-7.78-30.7-.43-.13C101.89,126.38,101.62,126.5,101.35,126.64Z"/><path class="cls-2" d="M90.47,144.44a.45.45,0,0,1-.21-.26C90.08,144.26,90.08,144.35,90.47,144.44Z"/><path class="cls-2" d="M47.55,122.7h.08a.2.2,0,0,0,.07-.1Z"/><path class="cls-2" d="M142.77,150.7a2.58,2.58,0,0,1,.89.18C143.67,150.76,143.46,150.68,142.77,150.7Z"/><path class="cls-2" d="M98.33,160.24l1.22-.49a3.37,3.37,0,0,1-1.18.18C98.43,160,98.72,160.12,98.33,160.24Z"/><path class="cls-2" d="M86.83,163.23c-.08.2-.27.35-.33.56l.21.08C87.19,163.17,87.51,162.61,86.83,163.23Z"/><path class="cls-2" d="M96.65,159.1c-.23-.35-1,.06-1.86.49l.16-.06C94.91,160.17,95.75,159.59,96.65,159.1Z"/><path class="cls-2" d="M94.59,159.69c-.27.11-.53.26-.8.36C93.78,160.31,94.12,159.93,94.59,159.69Z"/><path class="cls-2" d="M106.46,157.94c-.47,0-.21.55-.49.43C105.54,158.94,108.89,157.35,106.46,157.94Z"/><polygon class="cls-2" points="95.46 158.1 95.97 158.45 96.35 157.9 95.46 158.1"/><path class="cls-2" d="M103.06,156.45c-.53.05-1,.1-1.57.17,0,.08-.14.17-.37.26C102.06,156.68,103.12,156.59,103.06,156.45Z"/><path class="cls-2" d="M101.12,156.88a4.36,4.36,0,0,0-1.21.37C100.17,157.18,100.73,157,101.12,156.88Z"/><path class="cls-2" d="M97.47,157.27l.47,0c.37-.09.72-.19,1.09-.27C98.5,157.06,98,157.17,97.47,157.27Z"/><path class="cls-2" d="M119.89,154.8l1.71-.27c.16-.18-.31-.25-.95-.14C120.25,154.54,119.62,154.65,119.89,154.8Z"/><path class="cls-2" d="M114.59,153.81a1.68,1.68,0,0,1,.79.32v-.62Z"/><path class="cls-2" d="M119.6,153.3c.16-.18,2.46-.67.28-.48C119.72,153,118,153.27,119.6,153.3Z"/><polygon class="cls-2" points="145.55 152.2 145.11 152.24 145.25 153.25 145.55 152.2"/><path class="cls-2" d="M141,145.85c2,.3.52-.62,2.28-.25.48-.22-1.43-.31-1-.5C141.15,145.32,140.49,145.17,141,145.85Z"/><path class="cls-2" d="M142.36,145.1A5.3,5.3,0,0,0,143,145,3.13,3.13,0,0,0,142.36,145.1Z"/><polygon class="cls-2" points="181.49 127.41 182.8 127.63 181.96 127.28 181.49 127.41"/><path class="cls-2" d="M184,126.66l.3.65.79-.58A2.19,2.19,0,0,1,184,126.66Z"/><path class="cls-2" d="M61.08,146.8l.1-.15c-.21-.17-.52-.18-1.15-.2Z"/><path class="cls-2" d="M42.43,143.84l.31.13c-.13-.25-.25-.52-.38-.78Z"/><path class="cls-2" d="M35.94,127.67a12,12,0,0,0-1.53,2.24C35.31,128.18,36.65,128,35.94,127.67Z"/></g></g></svg>