<svg version="1" xmlns="http://www.w3.org/2000/svg" width="933.333" height="933.333" viewBox="0 0 700.000000 700.000000"><path d="M321.5 204.9c-11 3.1-18.4 10.8-18.5 19.4 0 2.7.2 2.8 4.2 2.5 3.9-.3 4.3-.6 5.1-3.8 1.9-7.4 7.8-10.9 18.5-11.1 8.2-.1 13.6 2 15.7 6.2 2 3.8 1.9 11.3-.1 13-.9.7-8.1 2.3-16 3.5-16.3 2.5-23.9 5.4-27.6 10.7-1.9 2.7-2.3 4.5-2.3 10.8 0 6.7.3 8 2.8 11.2 3.7 4.9 9.4 7.7 17.1 8.4 8.3.8 18.6-2.2 24.1-7l4-3.5 1 3.1c.5 1.7 2.5 4.2 4.4 5.4 3.3 2.2 4.1 2.3 25.7 2.3H402v-4c0-3.1-.4-4-1.7-4-1.4 0-1.4-.2.3-2.1 2.9-3.2 2.6-11-.6-14.4-6.8-7.5-21.1-7.3-27 .3-2.4 3-2.7 9.8-.4 13l1.5 2.2h-7.6c-7.2 0-7.6-.1-8.5-2.6-.6-1.4-1-12-1-23.5 0-26.1-1-29.3-10.5-34.2-4.4-2.2-19.5-3.3-25-1.8zm26.5 42c0 6.5-.4 8.4-2.3 11.2-4.4 6.5-11.7 9.9-21.5 9.9-10.2 0-15.2-4-15.2-12.1 0-3.9.5-5.3 2.9-7.6 3.6-3.6 7.9-4.9 20.5-6.3 5.4-.6 10.7-1.5 11.9-2 1.2-.5 2.5-.9 3-.9.4-.1.7 3.4.7 7.8zm44.5 9.3c3.2 1.5 4.2 5.1 2.1 8.2-2.8 4.4-12.1 4.6-15.1.3-2.1-3-1.9-4.4 1-7.2 2.7-2.8 7.6-3.3 12-1.3zM372 207.5c0 2.3-.4 2.5-4.6 2.5h-4.5l.3 4.2c.3 4.3.3 4.3 4.6 4.6 3.4.3 4.2.7 4.2 2.3 0 1.4.7 1.9 3 1.9s3-.4 3-2c0-1.9.7-2 9.8-2 7 0 10.4-.4 11.9-1.5 2.3-1.6 3.4-5.6 2.6-9.8-.4-2.2-1.1-2.7-3.4-2.7-2.4 0-2.9.4-2.9 2.5 0 2.5-.1 2.5-9 2.5s-9 0-9-2.5c0-2.1-.5-2.5-3-2.5s-3 .4-3 2.5z"/><path d="M361 234.1v4l3.8-.3c3.5-.3 3.7-.5 4-4.1l.3-3.7H361v4.1zM371 234v4h31v-8h-31v4zM301.7 282.6c-.4.4-.7 4.7-.7 9.6v8.8h6.6c4.8 0 6.5-.3 6.2-1.3-.3-.6-2.3-1.3-4.6-1.5l-4.1-.3-.3-7.6c-.3-7-1.3-9.5-3.1-7.7zM320 291.5c0 7.8.3 9.5 1.5 9.5s1.5-1.7 1.5-9.5-.3-9.5-1.5-9.5-1.5 1.7-1.5 9.5zM329.7 282.6c-1.5 1.5-.6 2.4 2.3 2.4h3v8c0 7.3.2 8 2 8s2-.7 2-8v-8h3.1c2 0 2.9-.4 2.7-1.3-.5-1.3-13.9-2.3-15.1-1.1zM349 283.5c0 1 1 1.5 3 1.5h3v8c0 6.4.3 8 1.5 8s1.5-1.6 1.5-8v-8h3c2 0 3-.5 3-1.5 0-1.2-1.5-1.5-7.5-1.5s-7.5.3-7.5 1.5zM370 291.5v9.5h6c4.7 0 6-.3 6-1.5 0-1.1-1.2-1.5-4.5-1.5H373v-8c0-6.4-.3-8-1.5-8s-1.5 1.7-1.5 9.5zM389 291.5v9.5h7.1c5.2 0 7-.3 6.7-1.3-.3-.7-2.6-1.3-5.6-1.5-4.8-.3-5.2-.5-5.2-2.8 0-2.2.4-2.4 5-2.4 3.8 0 5-.4 5-1.5s-1.2-1.5-5-1.5c-4.7 0-5-.2-5-2.5 0-2.4.3-2.5 5.6-2.5 4 0 5.5-.3 5.2-1.3-.3-.7-2.9-1.3-7.1-1.5l-6.7-.3v9.6zM59 293c0 2 .7 2 105 2s105 0 105-2-.7-2-105-2-105 0-105 2zM429 293c0 2 .5 2 104.7 1.8 98.9-.3 104.8-.4 105.1-2.1.3-1.6-5.2-1.7-104.7-1.7-104.5 0-105.1 0-105.1 2zM61 366.5V415h21v-40h43v-18H82v-21h49v-18H61v48.5zM157.2 355.2c.4 42.3.5 42.9 8.4 51.7 7.8 8.7 22.6 12.6 38.6 10.3 14.7-2.1 23.3-8.2 27.9-19.8 2.3-5.8 2.4-6.7 2.7-42.7l.3-36.7h-21l-.3 34.7c-.3 32.5-.4 35.1-2.3 38.7-3.3 6.5-6.4 8.1-15.5 8.1-8.8 0-11.9-1.5-15.5-7.6-1.9-3.2-2-5.5-2.3-38.7l-.3-35.2h-21l.3 37.2zM267 366.5V415h69v-18h-48v-79h-21v48.5zM363 366.5V415h69v-18h-48v-79h-21v48.5zM459 366.5V415h74v-18h-54v-24h47v-17h-47v-20h51v-18h-71v48.5zM562 366.4V415h20v-38.2l13.3.4c19.2.5 20.7 2 20.7 20.1 0 4.9.5 10.8 1.1 13.3l1.1 4.4h11.4c6.8 0 11.4-.4 11.4-1 0-.5-.9-2.4-2-4.2-1.7-2.8-2-5.1-2-13.9 0-13.8-1.7-19.6-7.1-24.2-3.7-3.2-3.9-3.6-2-4.2 3.1-.9 8.6-7.9 10-12.6 2.1-7 1.6-15.5-1.4-21.5s-9.1-11.8-14.4-13.6c-2.3-.7-14-1.3-31.8-1.5l-28.3-.4v48.5zm53.1-27.7c2.9 2.9 4.1 10.7 2.4 15-2.4 5.8-5.2 6.8-21.2 7.1l-14.3.4V335.9l15.5.3c14.3.3 15.6.5 17.6 2.5zM174.5 435.5c-12 2.7-12.8 2.8-12.1 1.6.4-.6.3-1.1-.3-1.1-.5 0-1.4.7-1.9 1.6-.5.8-4.4 2.4-8.7 3.5-4.3 1.1-9.5 2.9-11.4 4-7.4 4.1-8.7 4.8-11.3 5.8-1.6.6-2.8 1.5-2.8 2 0 .6.7.8 1.5.5 2.2-.9 1.8.1-1.6 4.1-1.7 1.9-3.9 3.5-4.9 3.5-2 0-3.5 3.6-4.6 11-.4 2.5-1 4.9-1.4 5.5-.4.5-1 1.9-1.3 3-.2 1.1-.5-.7-.6-4-.1-4.3-.4-5.6-1.2-4.8-1.7 1.7.7 13.8 3.9 19.7 2.8 5 9.1 10.6 12.2 10.6.9 0 2.5.9 3.5 2 1.3 1.5 3.1 2 6.4 2 2.7 0 6.3.9 8.6 2 5.6 2.9 15.2 5.2 21 5 7.4-.2 9.8-.1 10.4.6.3.4-.7.4-2.2.2-1.8-.4-2.6-.1-2.4.6.2.6 2.8 1.2 5.8 1.4 2.9.2 5.7.8 6 1.4.7 1.1 13 4 13.7 3.3.3-.2-1.4-1.2-3.7-2.1-2.2-.9-4.1-1.9-4.1-2.3 0-1.2 16.4-.1 17.1 1.1.6 1 1.5 1 4.2 0 4.5-1.6 6.8-1.5 9.5.4 1.2.8 2.7 1.2 3.3.8.8-.5.8-.9-.1-1.4-1.1-.7 10.6-2 22.8-2.5 2.9-.2 5.9-.9 6.8-1.6 1-.8 3.5-1.2 6.7-1 2.9.2 7.5.4 10.4.5 2.8 0 4.9.4 4.6.8-.7 1.3 3.5.9 10-.8 3.4-.9 7.4-1.3 8.9-1 1.6.3 2.8.1 2.8-.5 0-.5 1.6-1.7 3.5-2.5 3.9-1.6 5.8-1.8 3.3-.3-2.6 1.5-2.3 3.9.4 3.4 1.2-.3 2.6-.1 3.2.4.6.5 3.9 1.1 7.4 1.4 5.1.4 7.8 0 13.2-1.8 10.9-3.7 18.1-5 19.1-3.3 1.4 2.2 1.2 2.3-5.8 2.6-6.9.3-8.7.8-7.8 2.1.2.5 2.7.4 5.5-.1 3-.5 6.3-.5 8.3 0 2.4.7 3.6.6 4.5-.4.8-.8 3.2-1.4 6-1.3 3.5 0 4.2.3 2.7.9-2 .8-1.9.9.1.9 1.2.1 3.8-.6 5.8-1.4 3-1.3 4.8-1.3 10.8-.4 7.4 1.2 26.8.8 30.1-.6 1.4-.6 1.6-.4 1.1 1-.5 1.3 1.5.6 7.9-2.7l8.7-4.5v3.5c0 2.1-.7 4-1.7 4.8-1.6 1.2-1.2 1.3 3 1.4 4.9 0 5.6-.6 3.5-2.9-1.1-1.1-1-1.3.3-.8 8.2 2.8 10.1 3.1 11.1 1.4 1.1-2.1 4.2-2.3 3.4-.2-.6 1.8.3 1.9 4 .5 2.1-.8 3.1-.7 4.4.5 2.5 2.3 10.5 1.8 18.5-1 8.5-3 9.5-3.1 9.5-.5 0 3.2 2.7 3.5 7.8.7 5.4-2.9 11.1-4.2 14.4-3.3 1.3.3 3.9 2 5.8 3.7 2.5 2.2 2.8 2.8 1.1 1.9-1.6-.8-5.3-1.1-10.5-.8-9.6.5-12 1.5-8.5 3.4 1.5.8 1.8 1.4.9 1.4-2.8.1 5.4 3.1 9.5 3.5l4 .3-4-1.9-4-1.8 3.5-.1c4 0 8 2.3 8 4.7 0 1.1-.6 1.4-2.5.9-1.8-.5-2.5-.2-2.5.9 0 .8-.4 1.5-1 1.5-.5 0-1 .7-1 1.5 0 2.2-3.6 3.7-7.5 2.9-3.8-.7-4.3 0-2 2.6.9 1 1.9 3.4 2.2 5.4l.6 3.6h-4.2c-3.8 0-4.2-.2-3.6-2 .4-1.1.2-2-.4-2-.6 0-1.1.7-1.1 1.6 0 1.3-.7 1.5-3.2 1-4.3-.9-4.5-1.2-1.9-4 1.6-1.7 1.9-2.6 1.1-3.1-.7-.4-1.5-.4-1.9.1-.3.5-1.9 1-3.6 1-7.6.3-15.4 1.8-15.9 3.1-.9 2.2-8.8 5.4-10.4 4.1-.8-.7-5.4-.9-13.9-.5-7.8.4-13.4.2-14.5-.4-1.5-.8-2.3-.5-3.9 1.5-2.8 3.6-13.8 6.9-20.4 6.1-3.9-.5-6.6-.1-12.2 1.9-4 1.4-8.3 2.6-9.5 2.6-3.3 0-5.2-1.5-4.4-3.5.5-1.4 1.7-1.6 6-1.3 3 .1 5.2 0 5-.4-.2-.4.8-.9 2.3-1.1 1.6-.2.1-.4-3.2-.5-9.6-.1-31.4 2.3-32.7 3.6-.9.9-.8 1.2.6 1.2s1.5.2.4 1.3c-2.5 2.5-8.1 4-14.9 4.2-6.9.1-10.8 1.7-8.2 3.3.8.5-.7 1.8-4.2 3.7-3 1.7-5.5 3.3-5.5 3.7 0 .7 4-.1 5.5-1.2 2.1-1.5 7.6-3 6.9-1.8-.4.6-.1.9.7.6.8-.3 1.3-1.1 1.1-1.7-.1-.7 1.7-1.1 5-1.1 6.9 0 10.1-.9 9.4-2.6-.4-.9 1-1.8 4.2-2.7 5.4-1.6 13.8-1.7 13.5-.2-.1 1 20.8.2 22.5-.9 1.4-.9 22.1-2.8 34.2-3.2 6.3-.2 22.1-.5 35-.6 18.9-.2 24.5-.6 28.5-2 2.8-.9 7.6-2.2 10.8-2.8 3.2-.6 6.5-2 7.5-3 .9-.9 3.3-2.5 5.2-3.5 7.3-3.6 11.2-8.8 12.4-16.3.8-5.4-1-9.7-5.9-14-5.2-4.7-12.9-7.3-27.4-9.3-4.1-.6-8.4-1.7-9.5-2.5-2-1.3-6.6-2-5.3-.8.3.3-.2 1.4-1.1 2.4-1.5 1.5-2.5 1.7-8.1.9-4-.6-8.6-.5-12.5.1-8.4 1.5-15.5 1.7-15.9.5-.2-.6-1.9-.4-4.4.4-4.2 1.4-6.9.8-5.7-1.1.5-.7-.5-.9-3-.4-7.2 1.4-16.3 1.5-30.6.6-8-.5-22.5-1.1-32.2-1.2-9.8-.2-17.8-.6-17.8-1.1 0-.5-3.8-.7-8.5-.5-4.7.2-8.5.1-8.5-.2 0-.3-1.8-.6-4-.8-3-.2-4.5.3-6.2 2-1.3 1.3-3.5 2.3-5.3 2.3-1.6 0-4.1.4-5.5.8-1.9.6-2.1.6-1-.2 1.8-1.3-7.9-1.3-25.5-.1-13.4 1-34.9 1.2-37.1.3-.9-.3-1.4.1-1.4 1.2 0 1.5-.6 1.7-4.2 1-2.4-.4-7.2-.8-10.9-1-6-.2-9.1-1.3-14.2-4.8-1.5-1-2-.9-3.1.5-1.5 2.1-3.3 2.3-3.9.5-.3-.8-2.2-1.1-6.8-.8-3.5.3-8.9.5-12.1.5-3.1.1-5.4.4-5.1.8.8 1.5-4.2.8-12-1.6-4.2-1.4-7.4-2-7.1-1.4.4.6.2.8-.3.5-.6-.4-4.3-1.4-8.3-2.2-4-.8-8.4-2.4-9.9-3.6-1.4-1.1-4.5-3.4-6.9-5-4.2-2.9-4.3-3.1-3.7-7.2.4-2.4 2.5-6.7 4.8-10.2 3.8-5.4 5.1-6.5 13.9-10.8 7.5-3.8 11.1-5 16-5.4 5.8-.5 39.2-.5 49.9 0 2.5.1 5.7-.4 7-1 1.3-.7 4.2-1.7 6.4-2.2 2.2-.5 3.2-.9 2.1-1-1.5-.1-1.6-.4-.6-1.6 1.6-1.9 5.1-2 4.4-.1-.8 2 2.2 2.4 22.6 3.5 35.5 2 56 2.4 56 1.2 0-.6 1.5-1.1 3.3-1.1 2.5 0 2.9.3 1.7 1.1s-1 .9 1 .5c1.4-.4 3.9-.9 5.5-1.2 2.9-.4 3-.4.5.7-3.4 1.6-.7 2.4 2.9.9 3-1.2 5.6-1.3 17.1-.5 4.6.4 7 .2 6.2-.3-1-.7-.5-1.1 1.8-1.6 1.8-.3 3.5-.4 4-.1.4.2 10.1.4 21.6.3 27.9-.1 30.3-.2 29.7-1.1-.2-.4.3-1 1.3-1.4 1-.4 2 0 2.5.9 1.6 2.9 24.5 4.2 27.5 1.7.8-.6 1.3-.6 1.6.1.2.8 7.5 1.3 21.7 1.6 15 .4 21.1.2 20.6-.5-.9-1.5.6-1.4 5.1.5 3.1 1.3 4.2 1.4 5.8.4 2.3-1.5 71.9-1.4 83.1 0 9.5 1.3 10.1 1.2 11.9-.5 1.2-1.2 2.3-1.3 5.7-.6 4.9 1.1 20.9.3 20.9-1.1 0-.5-.4-.6-1-.3-.5.3-1 0-1-.9 0-.8-1.6-2.4-3.5-3.6-1.9-1.2-3.5-2.6-3.5-3.2 0-.6-.9-.8-1.9-.5-1.1.2-4.1.1-6.8-.4-6.1-1.2-45.4-2.3-68.6-2-11.6.1-19-.2-21.4-1-2.1-.7-3.8-.8-4.2-.2-.7 1.1-4.4 1.4-8 .6-2-.3-2.2-.6-1-1.4.9-.7-2.3-.9-10.1-.5-6.3.3-19.1.9-28.5 1.2-9.3.4-17.4 1-18 1.4-1.4 1-28.8.5-30.6-.5-1.7-1.1-7.8-.7-10.4.8-1.1.6-3.3 1.2-5 1.3-1.6.1-4.3.5-5.8.9-2.4.6-2.9.4-3.4-1.4-.5-2.2-1-2.2-11.7-2-6.1.2-11.7.1-12.5-.2-.7-.2-1.6.2-1.8.8-.3.9.9 1.3 4.2 1.3 2.8 0 4.4.4 4 1-1.1 1.7-8.7 1.1-14.5-1.1-4.9-2-7.9-2.2-27-2.5-11.8-.2-24.2-.8-27.5-1.4-3.3-.5-7.3-.9-9-.8l-3 .1 2.8.4c1.5.2 2.7.9 2.7 1.4 0 1.4-6.3 1.1-10.1-.5-3.6-1.5-21.3-2-20.4-.7.7 1.2-5.4 2-10.7 1.4-2.8-.3-4.8-.1-5.2.6-.4.6-1.7 1.1-2.9 1.1-1.6 0-1.8-.3-.9-.9 1.8-1.1-3.2-2.1-10.5-2.1-3.5 0-6 .5-6.9 1.5-1.7 1.6-4.8 1.8-7.9.5-1.7-.7-1.5-.9 1.2-.9 1.7-.1 3.5-.6 3.8-1.1.9-1.5-7.9-1.2-14.8.4-3.1.8-5.5 1-5.2.5.4-.5-.9-.6-2.7-.3-2.9.5-3.1.4-1.6-.8 1.4-1.2.8-1.4-4.5-1.3-3.4 0-6.9-.3-7.7-.7-.8-.3-4.2 0-7.5.7zm148 4.5c-.3.5.2 1 1.2 1.1 3.4.2-3 1.7-7.2 1.7-3.4 0-3.6-.1-1.5-.8 2.2-.7 2.1-.8-1.5-1.1-3.3-.2-2.8-.4 2.5-.9 3.6-.4 6.6-.7 6.8-.8.2-.1 0 .2-.3.8zm154.8 59.7c-.7.2-1.9.2-2.5 0-.7-.3-.2-.5 1.2-.5s1.9.2 1.3.5zm-166.4 5.7c1.4 1.6-.2 3.2-2 2-.8-.4-.7-.9.2-1.5.9-.6.1-.7-2.1-.3-2.6.4-3.1.3-2-.5 2.1-1.5 4.5-1.4 5.9.3zm-121.2 10.2c-.3.3-1.2.4-1.9.1-.8-.3-.5-.6.6-.6 1.1-.1 1.7.2 1.3.5zm148 42c-.3.3-1.2.4-1.9.1-.8-.3-.5-.6.6-.6 1.1-.1 1.7.2 1.3.5zM618 453c0 .5.4 1 .9 1 .6 0 1.3-.5 1.6-1 .3-.6-.1-1-.9-1-.9 0-1.6.4-1.6 1zM118.6 457.6l-1.9 2.6 2.7-1.7c1.4-.9 2.3-2.1 2-2.6-.7-1.2-.6-1.2-2.8 1.7z"/><path d="M142 509c0 .5.5 1 1.1 1 .5 0 .7-.5.4-1-.3-.6-.8-1-1.1-1-.2 0-.4.4-.4 1zM416.5 511c-2.3 2.5-1.9 2.9 2.2 2.3 2.8-.5 3.1-.8 2.2-2.4-1.2-2.4-2.1-2.4-4.4.1zM473 515.5c0 1.6 2 1.9 5.7.9 3.3-.9 1.8-2.4-2.3-2.4-2.4 0-3.4.5-3.4 1.5zM202.5 519c.3.5 1.3 1 2.1 1s1.2-.5.9-1c-.3-.6-1.3-1-2.1-1s-1.2.4-.9 1zM412.7 540.5c-6.4 1.7-7 2.5-2 2.5 2.6 0 4.9-.7 6.4-2 2.8-2.2 2.2-2.3-4.4-.5zM399.5 541c-.8 1.3 2.5 1.3 4.5 0 1.2-.8.9-1-1.2-1-1.5 0-3 .4-3.3 1zM385.5 543c-.3.5.1 1 .9 1 .9 0 1.6-.5 1.6-1 0-.6-.4-1-.9-1-.6 0-1.3.4-1.6 1zM402.5 546c-.7 1.1.9 1.1 4.5 0 2.4-.8 2.4-.8-.7-.9-1.7-.1-3.5.3-3.8.9zM340.5 553c-.4.7.3.8 2.2.4 3.8-.9 4.2-1.4 1-1.4-1.4 0-2.9.5-3.2 1zM328.8 554.7c.7.3 1.6.2 1.9-.1.4-.3-.2-.6-1.3-.5-1.1 0-1.4.3-.6.6zM357.8 556.8c-1 .2-1.8.8-1.8 1.3 0 1.1 1.1 1.1 3-.1 1.8-1.1 1.1-1.8-1.2-1.2zM321 558c0 .5.4 1 .9 1 .6 0 1.3-.5 1.6-1 .3-.6-.1-1-.9-1-.9 0-1.6.4-1.6 1zM320.4 561.4c-1 .8-1.6 1.7-1.2 2.1.8.8 4.8-1.3 4.8-2.5 0-1.4-1.3-1.2-3.6.4zM309 561.9c-.8.6-1.8.7-2.2.5-.4-.3-.8 0-.8.6s-2.1 2.4-4.7 4.1c-2.7 1.6-4.8 3.5-4.8 4.2 0 .6 1.3 1.8 3 2.6l2.9 1.4-2.2 1.5c-3 2-2.8 3.4.3 2 1.3-.6 2.7-2 3.1-3.2.3-1.2 1.3-2.9 2.2-3.9 1.5-1.7 1.5-1.7-1.2-.8-1.5.6-3.2 1.1-3.9 1.1-1.5 0 2.5-2.9 4.1-3 1.4 0 4.4-3 6.3-6.3 1.1-1.9.2-2.2-2.1-.8zM313.5 570c-.3.5-.1 1 .4 1 .6 0 1.1-.5 1.1-1 0-.6-.2-1-.4-1-.3 0-.8.4-1.1 1zM305.7 573.7c-.4.3-.7 1.1-.7 1.7 0 .6.5.5 1.2-.2.6-.6.9-1.4.7-1.7-.3-.3-.9-.2-1.2.2zM291 575.5c-.8.9-.8 1.5-.2 1.5 1.2 0 2.6-1.9 1.9-2.6-.2-.2-1 .2-1.7 1.1zM292 582.8c0 2.5.7 3.1 3.1 2.5 1.1-.3 1.9-1.4 1.9-2.7 0-1.5-.3-1.7-.9-.7-.6.9-1.1 1-1.5.2-1.1-1.7-2.6-1.3-2.6.7zM296 586.9c0 .5.7 1.4 1.5 2.1 1.2 1 1.5 1 1.5-.3 0-.8-.7-1.7-1.5-2.1-.8-.3-1.5-.2-1.5.3zM312.5 590c.3.5 1.4 1 2.3 1 1.5 0 1.5-.2.2-1-2-1.3-3.3-1.3-2.5 0zM326.5 590c.3.5-.2 1-1.1 1-1 0-1.5.3-1.1.6.3.3 2.1.3 3.9-.1 2.9-.7 3-.9 1.3-1.6-2.8-1.1-3.7-1.1-3 .1zM350.7 589.7c-.2.4-.2 1.6.2 2.6.7 1.8.8 1.8 3.1-.2 1.4-1.1 2-2 1.3-2.1-.6 0-1.8-.3-2.6-.6s-1.7-.2-2 .3zM364 592.1c0 .5-1.2.9-2.6.9-1.4 0-2.3.4-1.9 1 .3.5 1.5 1 2.6 1 1 0 1.9-.5 1.9-1 0-.6.9-1 2-1s2-.4 2-.8-.9-.8-2-.9c-1.1-.1-2 .2-2 .8zM296 592.8c0 1.3 4.9 2.2 5.6 1.1.3-.5-.1-.9-1-.9-.8 0-2.1-.3-3-.6-.9-.3-1.6-.2-1.6.4zM319 593c0 .5.9 1 2 1s2-.5 2-1c0-.6-.9-1-2-1s-2 .4-2 1zM330.7 594.6c-.8.8.1 2.4 1.3 2.4.4 0 1-.7 1.4-1.5.5-1.5-1.4-2.1-2.7-.9zM320.1 596.4c1.6 1.7 8.9 3.1 8.9 1.6 0-.4-1.5-1-3.2-1.3-1.8-.3-4.2-.9-5.3-1.3-1.8-.6-1.9-.6-.4 1zM347.8 595.7c.7.3 1.6.2 1.9-.1.4-.3-.2-.6-1.3-.5-1.1 0-1.4.3-.6.6zM381 599.1c0 .4.6 1 1.3 1.2.6.2-.1.3-1.6.1-1.7-.2-2.6 0-2.2.6.4.6 3.1.8 6.8.4 4.5-.5 7.2-.2 9.8.9 2 .8 4.2 1.1 4.8.7.9-.5.7-.9-.6-1.5-3-1.2-18.3-3.2-18.3-2.4zM408.7 614.1c.4 1.3.8 1.8 1.1 1 .2-.7-.1-1.8-.6-2.3-.8-.8-.9-.4-.5 1.3zM385 646.1c0 .5.5.7 1 .4.6-.3 1-.8 1-1.1 0-.2-.4-.4-1-.4-.5 0-1 .5-1 1.1z"/></svg>